M48
;DRILL file {KiCad (5.0.0-rc2-110-g9edfd25)} date Friday, June 15, 2018 at 05:47:32 PM
;FORMAT={-:-/ absolute / inch / decimal}
FMAT,2
INCH,TZ
T1C0.0157
T2C0.0276
T3C0.0906
T4C0.1142
%
G90
G05
M72
T1
X7.58Y-3.41
X7.58Y-3.49
X7.61Y-3.2925
X7.61Y-3.4509
X7.61Y-3.5287
X7.61Y-3.61
X7.6125Y-3.3726
T2
X6.7109Y-3.3122
X6.7109Y-3.4106
X6.7109Y-3.4894
X6.7109Y-3.5878
X6.7897Y-3.2925
X6.7897Y-3.3713
X6.7897Y-3.45
X6.7897Y-3.5287
X6.7897Y-3.6075
T3
X6.6519Y-3.1913
X6.6519Y-3.7087
T4
X7.8118Y-3.2197
X7.8118Y-3.6803
T0
M30
