G04 #@! TF.GenerationSoftware,KiCad,Pcbnew,(5.0.0-rc2-110-g9edfd25)*
G04 #@! TF.CreationDate,2018-06-15T17:42:50-07:00*
G04 #@! TF.ProjectId,USB-Power-Cleaner,5553422D506F7765722D436C65616E65,rev?*
G04 #@! TF.SameCoordinates,Original*
G04 #@! TF.FileFunction,Copper,L2,Bot,Signal*
G04 #@! TF.FilePolarity,Positive*
%FSLAX46Y46*%
G04 Gerber Fmt 4.6, Leading zero omitted, Abs format (unit mm)*
G04 Created by KiCad (PCBNEW (5.0.0-rc2-110-g9edfd25)) date Friday, June 15, 2018 at 05:42:50 PM*
%MOMM*%
%LPD*%
G01*
G04 APERTURE LIST*
G04 #@! TA.AperFunction,ComponentPad*
%ADD10C,1.250000*%
G04 #@! TD*
G04 #@! TA.AperFunction,ComponentPad*
%ADD11C,1.524000*%
G04 #@! TD*
G04 #@! TA.AperFunction,ComponentPad*
%ADD12O,3.600000X2.600000*%
G04 #@! TD*
G04 #@! TA.AperFunction,ComponentPad*
%ADD13O,3.600000X1.600000*%
G04 #@! TD*
G04 #@! TA.AperFunction,ViaPad*
%ADD14C,0.800000*%
G04 #@! TD*
G04 #@! TA.AperFunction,Conductor*
%ADD15C,0.250000*%
G04 #@! TD*
G04 #@! TA.AperFunction,Conductor*
%ADD16C,0.254000*%
G04 #@! TD*
G04 APERTURE END LIST*
D10*
G04 #@! TO.P,J1,7*
G04 #@! TO.N,Net-(J1-Pad7)*
X172458000Y-87630000D03*
G04 #@! TO.P,J1,8*
G04 #@! TO.N,Net-(J1-Pad8)*
X172458000Y-85630000D03*
D11*
G04 #@! TO.P,J1,9*
G04 #@! TO.N,Net-(J1-Pad9)*
X172458000Y-83630000D03*
D10*
G04 #@! TO.P,J1,6*
G04 #@! TO.N,Net-(J1-Pad6)*
X172458000Y-89630000D03*
D11*
G04 #@! TO.P,J1,5*
G04 #@! TO.N,Net-(J1-Pad5)*
X172458000Y-91630000D03*
G04 #@! TO.P,J1,1*
G04 #@! TO.N,Net-(C3-Pad1)*
X170458000Y-84130000D03*
G04 #@! TO.P,J1,2*
G04 #@! TO.N,Net-(J1-Pad2)*
X170458000Y-86630000D03*
G04 #@! TO.P,J1,3*
G04 #@! TO.N,Net-(J1-Pad3)*
X170458000Y-88630000D03*
G04 #@! TO.P,J1,4*
G04 #@! TO.N,GND*
X170458000Y-91130000D03*
D12*
G04 #@! TO.P,J1,10*
G04 #@! TO.N,Net-(J1-Pad10)*
X168958000Y-94200000D03*
X168958000Y-81060000D03*
G04 #@! TD*
D13*
G04 #@! TO.P,J2,10*
G04 #@! TO.N,Net-(J1-Pad10)*
X198420000Y-81780000D03*
X198420000Y-93480000D03*
G04 #@! TD*
D14*
G04 #@! TO.N,Net-(J1-Pad7)*
X193294000Y-87630008D03*
G04 #@! TO.N,Net-(J1-Pad8)*
X193294000Y-85852000D03*
G04 #@! TO.N,Net-(J1-Pad9)*
X193294000Y-83630000D03*
G04 #@! TO.N,Net-(J1-Pad6)*
X193294000Y-89662000D03*
G04 #@! TO.N,Net-(J1-Pad5)*
X193040000Y-91694000D03*
G04 #@! TO.N,Net-(J1-Pad2)*
X192532000Y-86614000D03*
G04 #@! TO.N,Net-(J1-Pad3)*
X192531990Y-88646000D03*
G04 #@! TD*
D15*
G04 #@! TO.N,Net-(J1-Pad7)*
X193293992Y-87630000D02*
X193294000Y-87630008D01*
X172458000Y-87630000D02*
X193293992Y-87630000D01*
G04 #@! TO.N,Net-(J1-Pad8)*
X173535630Y-85630000D02*
X173757630Y-85852000D01*
X172458000Y-85630000D02*
X173535630Y-85630000D01*
X173757630Y-85852000D02*
X193294000Y-85852000D01*
G04 #@! TO.N,Net-(J1-Pad9)*
X172458000Y-83630000D02*
X193294000Y-83630000D01*
G04 #@! TO.N,Net-(J1-Pad6)*
X193262000Y-89630000D02*
X193294000Y-89662000D01*
X172458000Y-89630000D02*
X193262000Y-89630000D01*
G04 #@! TO.N,Net-(J1-Pad5)*
X172458000Y-91630000D02*
X192976000Y-91630000D01*
X192976000Y-91630000D02*
X193040000Y-91694000D01*
G04 #@! TO.N,Net-(J1-Pad2)*
X192516000Y-86630000D02*
X192532000Y-86614000D01*
X170458000Y-86630000D02*
X192516000Y-86630000D01*
G04 #@! TO.N,Net-(J1-Pad3)*
X192515990Y-88630000D02*
X192531990Y-88646000D01*
X170458000Y-88630000D02*
X192515990Y-88630000D01*
G04 #@! TD*
D16*
G04 #@! TO.N,Net-(J1-Pad10)*
G36*
X167600175Y-79320894D02*
X166999946Y-79781551D01*
X166621693Y-80436840D01*
X166570811Y-80632516D01*
X166686296Y-80933000D01*
X168831000Y-80933000D01*
X168831000Y-80913000D01*
X169085000Y-80913000D01*
X169085000Y-80933000D01*
X171229704Y-80933000D01*
X171345189Y-80632516D01*
X171294307Y-80436840D01*
X170916054Y-79781551D01*
X170315825Y-79320894D01*
X169928226Y-79217000D01*
X200437000Y-79217000D01*
X200437000Y-80784733D01*
X200086483Y-80502834D01*
X199547000Y-80345000D01*
X198547000Y-80345000D01*
X198547000Y-81653000D01*
X198567000Y-81653000D01*
X198567000Y-81907000D01*
X198547000Y-81907000D01*
X198547000Y-83215000D01*
X199547000Y-83215000D01*
X200086483Y-83057166D01*
X200437000Y-82775267D01*
X200437001Y-92484734D01*
X200086483Y-92202834D01*
X199547000Y-92045000D01*
X198547000Y-92045000D01*
X198547000Y-93353000D01*
X198567000Y-93353000D01*
X198567000Y-93607000D01*
X198547000Y-93607000D01*
X198547000Y-94915000D01*
X199547000Y-94915000D01*
X200086483Y-94757166D01*
X200437001Y-94475266D01*
X200437001Y-96043000D01*
X169928226Y-96043000D01*
X170315825Y-95939106D01*
X170916054Y-95478449D01*
X171294307Y-94823160D01*
X171345189Y-94627484D01*
X171229704Y-94327000D01*
X169085000Y-94327000D01*
X169085000Y-94347000D01*
X168831000Y-94347000D01*
X168831000Y-94327000D01*
X166686296Y-94327000D01*
X166570811Y-94627484D01*
X166621693Y-94823160D01*
X166999946Y-95478449D01*
X167600175Y-95939106D01*
X167987774Y-96043000D01*
X166497000Y-96043000D01*
X166497000Y-93772516D01*
X166570811Y-93772516D01*
X166686296Y-94073000D01*
X168831000Y-94073000D01*
X168831000Y-92265000D01*
X169085000Y-92265000D01*
X169085000Y-94073000D01*
X171229704Y-94073000D01*
X171323465Y-93829039D01*
X196028096Y-93829039D01*
X196045633Y-93911819D01*
X196315500Y-94404896D01*
X196753517Y-94757166D01*
X197293000Y-94915000D01*
X198293000Y-94915000D01*
X198293000Y-93607000D01*
X196150085Y-93607000D01*
X196028096Y-93829039D01*
X171323465Y-93829039D01*
X171345189Y-93772516D01*
X171294307Y-93576840D01*
X171036932Y-93130961D01*
X196028096Y-93130961D01*
X196150085Y-93353000D01*
X198293000Y-93353000D01*
X198293000Y-92045000D01*
X197293000Y-92045000D01*
X196753517Y-92202834D01*
X196315500Y-92555104D01*
X196045633Y-93048181D01*
X196028096Y-93130961D01*
X171036932Y-93130961D01*
X170916054Y-92921551D01*
X170315825Y-92460894D01*
X169585000Y-92265000D01*
X169085000Y-92265000D01*
X168831000Y-92265000D01*
X168331000Y-92265000D01*
X167600175Y-92460894D01*
X166999946Y-92921551D01*
X166621693Y-93576840D01*
X166570811Y-93772516D01*
X166497000Y-93772516D01*
X166497000Y-83903439D01*
X169319000Y-83903439D01*
X169319000Y-84356561D01*
X169492403Y-84775191D01*
X169812809Y-85095597D01*
X170231439Y-85269000D01*
X170684561Y-85269000D01*
X171103191Y-85095597D01*
X171423597Y-84775191D01*
X171590197Y-84372985D01*
X171812809Y-84595597D01*
X172074863Y-84704144D01*
X171890413Y-84780546D01*
X171608546Y-85062413D01*
X171456000Y-85430690D01*
X171456000Y-85829310D01*
X171579722Y-86128000D01*
X171482909Y-86128000D01*
X171423597Y-85984809D01*
X171103191Y-85664403D01*
X170684561Y-85491000D01*
X170231439Y-85491000D01*
X169812809Y-85664403D01*
X169492403Y-85984809D01*
X169319000Y-86403439D01*
X169319000Y-86856561D01*
X169492403Y-87275191D01*
X169812809Y-87595597D01*
X169895865Y-87630000D01*
X169812809Y-87664403D01*
X169492403Y-87984809D01*
X169319000Y-88403439D01*
X169319000Y-88856561D01*
X169492403Y-89275191D01*
X169812809Y-89595597D01*
X170231439Y-89769000D01*
X170684561Y-89769000D01*
X171103191Y-89595597D01*
X171423597Y-89275191D01*
X171482909Y-89132000D01*
X171579722Y-89132000D01*
X171456000Y-89430690D01*
X171456000Y-89829310D01*
X171608546Y-90197587D01*
X171890413Y-90479454D01*
X172074863Y-90555856D01*
X171812809Y-90664403D01*
X171590197Y-90887015D01*
X171423597Y-90484809D01*
X171103191Y-90164403D01*
X170684561Y-89991000D01*
X170231439Y-89991000D01*
X169812809Y-90164403D01*
X169492403Y-90484809D01*
X169319000Y-90903439D01*
X169319000Y-91356561D01*
X169492403Y-91775191D01*
X169812809Y-92095597D01*
X170231439Y-92269000D01*
X170684561Y-92269000D01*
X171103191Y-92095597D01*
X171325803Y-91872985D01*
X171492403Y-92275191D01*
X171812809Y-92595597D01*
X172231439Y-92769000D01*
X172684561Y-92769000D01*
X173103191Y-92595597D01*
X173423597Y-92275191D01*
X173482909Y-92132000D01*
X192380407Y-92132000D01*
X192381291Y-92134135D01*
X192599865Y-92352709D01*
X192885445Y-92471000D01*
X193194555Y-92471000D01*
X193480135Y-92352709D01*
X193698709Y-92134135D01*
X193817000Y-91848555D01*
X193817000Y-91539445D01*
X193698709Y-91253865D01*
X193480135Y-91035291D01*
X193194555Y-90917000D01*
X192885445Y-90917000D01*
X192599865Y-91035291D01*
X192507156Y-91128000D01*
X173482909Y-91128000D01*
X173423597Y-90984809D01*
X173103191Y-90664403D01*
X172841137Y-90555856D01*
X173025587Y-90479454D01*
X173307454Y-90197587D01*
X173334621Y-90132000D01*
X192665156Y-90132000D01*
X192853865Y-90320709D01*
X193139445Y-90439000D01*
X193448555Y-90439000D01*
X193734135Y-90320709D01*
X193952709Y-90102135D01*
X194071000Y-89816555D01*
X194071000Y-89685663D01*
X197443000Y-89685663D01*
X197443000Y-90074337D01*
X197591739Y-90433426D01*
X197866574Y-90708261D01*
X198225663Y-90857000D01*
X198614337Y-90857000D01*
X198973426Y-90708261D01*
X199248261Y-90433426D01*
X199397000Y-90074337D01*
X199397000Y-89685663D01*
X199248261Y-89326574D01*
X198973426Y-89051739D01*
X198614337Y-88903000D01*
X198225663Y-88903000D01*
X197866574Y-89051739D01*
X197591739Y-89326574D01*
X197443000Y-89685663D01*
X194071000Y-89685663D01*
X194071000Y-89507445D01*
X193952709Y-89221865D01*
X193734135Y-89003291D01*
X193448555Y-88885000D01*
X193274012Y-88885000D01*
X193308990Y-88800555D01*
X193308990Y-88491445D01*
X193274015Y-88407008D01*
X193448555Y-88407008D01*
X193734135Y-88288717D01*
X193952709Y-88070143D01*
X194071000Y-87784563D01*
X194071000Y-87475453D01*
X193952709Y-87189873D01*
X193734135Y-86971299D01*
X193448555Y-86853008D01*
X193274018Y-86853008D01*
X193309000Y-86768555D01*
X193309000Y-86629000D01*
X193448555Y-86629000D01*
X193734135Y-86510709D01*
X193952709Y-86292135D01*
X194071000Y-86006555D01*
X194071000Y-85697445D01*
X193952709Y-85411865D01*
X193734135Y-85193291D01*
X193715720Y-85185663D01*
X197443000Y-85185663D01*
X197443000Y-85574337D01*
X197591739Y-85933426D01*
X197866574Y-86208261D01*
X198225663Y-86357000D01*
X198614337Y-86357000D01*
X198973426Y-86208261D01*
X199248261Y-85933426D01*
X199397000Y-85574337D01*
X199397000Y-85185663D01*
X199248261Y-84826574D01*
X198973426Y-84551739D01*
X198614337Y-84403000D01*
X198225663Y-84403000D01*
X197866574Y-84551739D01*
X197591739Y-84826574D01*
X197443000Y-85185663D01*
X193715720Y-85185663D01*
X193448555Y-85075000D01*
X193139445Y-85075000D01*
X192853865Y-85193291D01*
X192697156Y-85350000D01*
X173965564Y-85350000D01*
X173925557Y-85309993D01*
X173897551Y-85268079D01*
X173731500Y-85157127D01*
X173585069Y-85128000D01*
X173585064Y-85128000D01*
X173535630Y-85118167D01*
X173486196Y-85128000D01*
X173334621Y-85128000D01*
X173307454Y-85062413D01*
X173025587Y-84780546D01*
X172841137Y-84704144D01*
X173103191Y-84595597D01*
X173423597Y-84275191D01*
X173482909Y-84132000D01*
X192697156Y-84132000D01*
X192853865Y-84288709D01*
X193139445Y-84407000D01*
X193448555Y-84407000D01*
X193734135Y-84288709D01*
X193952709Y-84070135D01*
X194071000Y-83784555D01*
X194071000Y-83475445D01*
X193952709Y-83189865D01*
X193734135Y-82971291D01*
X193448555Y-82853000D01*
X193139445Y-82853000D01*
X192853865Y-82971291D01*
X192697156Y-83128000D01*
X173482909Y-83128000D01*
X173423597Y-82984809D01*
X173103191Y-82664403D01*
X172684561Y-82491000D01*
X172231439Y-82491000D01*
X171812809Y-82664403D01*
X171492403Y-82984809D01*
X171325803Y-83387015D01*
X171103191Y-83164403D01*
X170684561Y-82991000D01*
X170231439Y-82991000D01*
X169812809Y-83164403D01*
X169492403Y-83484809D01*
X169319000Y-83903439D01*
X166497000Y-83903439D01*
X166497000Y-81487484D01*
X166570811Y-81487484D01*
X166621693Y-81683160D01*
X166999946Y-82338449D01*
X167600175Y-82799106D01*
X168331000Y-82995000D01*
X168831000Y-82995000D01*
X168831000Y-81187000D01*
X169085000Y-81187000D01*
X169085000Y-82995000D01*
X169585000Y-82995000D01*
X170315825Y-82799106D01*
X170916054Y-82338449D01*
X171036931Y-82129039D01*
X196028096Y-82129039D01*
X196045633Y-82211819D01*
X196315500Y-82704896D01*
X196753517Y-83057166D01*
X197293000Y-83215000D01*
X198293000Y-83215000D01*
X198293000Y-81907000D01*
X196150085Y-81907000D01*
X196028096Y-82129039D01*
X171036931Y-82129039D01*
X171294307Y-81683160D01*
X171345189Y-81487484D01*
X171323466Y-81430961D01*
X196028096Y-81430961D01*
X196150085Y-81653000D01*
X198293000Y-81653000D01*
X198293000Y-80345000D01*
X197293000Y-80345000D01*
X196753517Y-80502834D01*
X196315500Y-80855104D01*
X196045633Y-81348181D01*
X196028096Y-81430961D01*
X171323466Y-81430961D01*
X171229704Y-81187000D01*
X169085000Y-81187000D01*
X168831000Y-81187000D01*
X166686296Y-81187000D01*
X166570811Y-81487484D01*
X166497000Y-81487484D01*
X166497000Y-79217000D01*
X167987774Y-79217000D01*
X167600175Y-79320894D01*
X167600175Y-79320894D01*
G37*
X167600175Y-79320894D02*
X166999946Y-79781551D01*
X166621693Y-80436840D01*
X166570811Y-80632516D01*
X166686296Y-80933000D01*
X168831000Y-80933000D01*
X168831000Y-80913000D01*
X169085000Y-80913000D01*
X169085000Y-80933000D01*
X171229704Y-80933000D01*
X171345189Y-80632516D01*
X171294307Y-80436840D01*
X170916054Y-79781551D01*
X170315825Y-79320894D01*
X169928226Y-79217000D01*
X200437000Y-79217000D01*
X200437000Y-80784733D01*
X200086483Y-80502834D01*
X199547000Y-80345000D01*
X198547000Y-80345000D01*
X198547000Y-81653000D01*
X198567000Y-81653000D01*
X198567000Y-81907000D01*
X198547000Y-81907000D01*
X198547000Y-83215000D01*
X199547000Y-83215000D01*
X200086483Y-83057166D01*
X200437000Y-82775267D01*
X200437001Y-92484734D01*
X200086483Y-92202834D01*
X199547000Y-92045000D01*
X198547000Y-92045000D01*
X198547000Y-93353000D01*
X198567000Y-93353000D01*
X198567000Y-93607000D01*
X198547000Y-93607000D01*
X198547000Y-94915000D01*
X199547000Y-94915000D01*
X200086483Y-94757166D01*
X200437001Y-94475266D01*
X200437001Y-96043000D01*
X169928226Y-96043000D01*
X170315825Y-95939106D01*
X170916054Y-95478449D01*
X171294307Y-94823160D01*
X171345189Y-94627484D01*
X171229704Y-94327000D01*
X169085000Y-94327000D01*
X169085000Y-94347000D01*
X168831000Y-94347000D01*
X168831000Y-94327000D01*
X166686296Y-94327000D01*
X166570811Y-94627484D01*
X166621693Y-94823160D01*
X166999946Y-95478449D01*
X167600175Y-95939106D01*
X167987774Y-96043000D01*
X166497000Y-96043000D01*
X166497000Y-93772516D01*
X166570811Y-93772516D01*
X166686296Y-94073000D01*
X168831000Y-94073000D01*
X168831000Y-92265000D01*
X169085000Y-92265000D01*
X169085000Y-94073000D01*
X171229704Y-94073000D01*
X171323465Y-93829039D01*
X196028096Y-93829039D01*
X196045633Y-93911819D01*
X196315500Y-94404896D01*
X196753517Y-94757166D01*
X197293000Y-94915000D01*
X198293000Y-94915000D01*
X198293000Y-93607000D01*
X196150085Y-93607000D01*
X196028096Y-93829039D01*
X171323465Y-93829039D01*
X171345189Y-93772516D01*
X171294307Y-93576840D01*
X171036932Y-93130961D01*
X196028096Y-93130961D01*
X196150085Y-93353000D01*
X198293000Y-93353000D01*
X198293000Y-92045000D01*
X197293000Y-92045000D01*
X196753517Y-92202834D01*
X196315500Y-92555104D01*
X196045633Y-93048181D01*
X196028096Y-93130961D01*
X171036932Y-93130961D01*
X170916054Y-92921551D01*
X170315825Y-92460894D01*
X169585000Y-92265000D01*
X169085000Y-92265000D01*
X168831000Y-92265000D01*
X168331000Y-92265000D01*
X167600175Y-92460894D01*
X166999946Y-92921551D01*
X166621693Y-93576840D01*
X166570811Y-93772516D01*
X166497000Y-93772516D01*
X166497000Y-83903439D01*
X169319000Y-83903439D01*
X169319000Y-84356561D01*
X169492403Y-84775191D01*
X169812809Y-85095597D01*
X170231439Y-85269000D01*
X170684561Y-85269000D01*
X171103191Y-85095597D01*
X171423597Y-84775191D01*
X171590197Y-84372985D01*
X171812809Y-84595597D01*
X172074863Y-84704144D01*
X171890413Y-84780546D01*
X171608546Y-85062413D01*
X171456000Y-85430690D01*
X171456000Y-85829310D01*
X171579722Y-86128000D01*
X171482909Y-86128000D01*
X171423597Y-85984809D01*
X171103191Y-85664403D01*
X170684561Y-85491000D01*
X170231439Y-85491000D01*
X169812809Y-85664403D01*
X169492403Y-85984809D01*
X169319000Y-86403439D01*
X169319000Y-86856561D01*
X169492403Y-87275191D01*
X169812809Y-87595597D01*
X169895865Y-87630000D01*
X169812809Y-87664403D01*
X169492403Y-87984809D01*
X169319000Y-88403439D01*
X169319000Y-88856561D01*
X169492403Y-89275191D01*
X169812809Y-89595597D01*
X170231439Y-89769000D01*
X170684561Y-89769000D01*
X171103191Y-89595597D01*
X171423597Y-89275191D01*
X171482909Y-89132000D01*
X171579722Y-89132000D01*
X171456000Y-89430690D01*
X171456000Y-89829310D01*
X171608546Y-90197587D01*
X171890413Y-90479454D01*
X172074863Y-90555856D01*
X171812809Y-90664403D01*
X171590197Y-90887015D01*
X171423597Y-90484809D01*
X171103191Y-90164403D01*
X170684561Y-89991000D01*
X170231439Y-89991000D01*
X169812809Y-90164403D01*
X169492403Y-90484809D01*
X169319000Y-90903439D01*
X169319000Y-91356561D01*
X169492403Y-91775191D01*
X169812809Y-92095597D01*
X170231439Y-92269000D01*
X170684561Y-92269000D01*
X171103191Y-92095597D01*
X171325803Y-91872985D01*
X171492403Y-92275191D01*
X171812809Y-92595597D01*
X172231439Y-92769000D01*
X172684561Y-92769000D01*
X173103191Y-92595597D01*
X173423597Y-92275191D01*
X173482909Y-92132000D01*
X192380407Y-92132000D01*
X192381291Y-92134135D01*
X192599865Y-92352709D01*
X192885445Y-92471000D01*
X193194555Y-92471000D01*
X193480135Y-92352709D01*
X193698709Y-92134135D01*
X193817000Y-91848555D01*
X193817000Y-91539445D01*
X193698709Y-91253865D01*
X193480135Y-91035291D01*
X193194555Y-90917000D01*
X192885445Y-90917000D01*
X192599865Y-91035291D01*
X192507156Y-91128000D01*
X173482909Y-91128000D01*
X173423597Y-90984809D01*
X173103191Y-90664403D01*
X172841137Y-90555856D01*
X173025587Y-90479454D01*
X173307454Y-90197587D01*
X173334621Y-90132000D01*
X192665156Y-90132000D01*
X192853865Y-90320709D01*
X193139445Y-90439000D01*
X193448555Y-90439000D01*
X193734135Y-90320709D01*
X193952709Y-90102135D01*
X194071000Y-89816555D01*
X194071000Y-89685663D01*
X197443000Y-89685663D01*
X197443000Y-90074337D01*
X197591739Y-90433426D01*
X197866574Y-90708261D01*
X198225663Y-90857000D01*
X198614337Y-90857000D01*
X198973426Y-90708261D01*
X199248261Y-90433426D01*
X199397000Y-90074337D01*
X199397000Y-89685663D01*
X199248261Y-89326574D01*
X198973426Y-89051739D01*
X198614337Y-88903000D01*
X198225663Y-88903000D01*
X197866574Y-89051739D01*
X197591739Y-89326574D01*
X197443000Y-89685663D01*
X194071000Y-89685663D01*
X194071000Y-89507445D01*
X193952709Y-89221865D01*
X193734135Y-89003291D01*
X193448555Y-88885000D01*
X193274012Y-88885000D01*
X193308990Y-88800555D01*
X193308990Y-88491445D01*
X193274015Y-88407008D01*
X193448555Y-88407008D01*
X193734135Y-88288717D01*
X193952709Y-88070143D01*
X194071000Y-87784563D01*
X194071000Y-87475453D01*
X193952709Y-87189873D01*
X193734135Y-86971299D01*
X193448555Y-86853008D01*
X193274018Y-86853008D01*
X193309000Y-86768555D01*
X193309000Y-86629000D01*
X193448555Y-86629000D01*
X193734135Y-86510709D01*
X193952709Y-86292135D01*
X194071000Y-86006555D01*
X194071000Y-85697445D01*
X193952709Y-85411865D01*
X193734135Y-85193291D01*
X193715720Y-85185663D01*
X197443000Y-85185663D01*
X197443000Y-85574337D01*
X197591739Y-85933426D01*
X197866574Y-86208261D01*
X198225663Y-86357000D01*
X198614337Y-86357000D01*
X198973426Y-86208261D01*
X199248261Y-85933426D01*
X199397000Y-85574337D01*
X199397000Y-85185663D01*
X199248261Y-84826574D01*
X198973426Y-84551739D01*
X198614337Y-84403000D01*
X198225663Y-84403000D01*
X197866574Y-84551739D01*
X197591739Y-84826574D01*
X197443000Y-85185663D01*
X193715720Y-85185663D01*
X193448555Y-85075000D01*
X193139445Y-85075000D01*
X192853865Y-85193291D01*
X192697156Y-85350000D01*
X173965564Y-85350000D01*
X173925557Y-85309993D01*
X173897551Y-85268079D01*
X173731500Y-85157127D01*
X173585069Y-85128000D01*
X173585064Y-85128000D01*
X173535630Y-85118167D01*
X173486196Y-85128000D01*
X173334621Y-85128000D01*
X173307454Y-85062413D01*
X173025587Y-84780546D01*
X172841137Y-84704144D01*
X173103191Y-84595597D01*
X173423597Y-84275191D01*
X173482909Y-84132000D01*
X192697156Y-84132000D01*
X192853865Y-84288709D01*
X193139445Y-84407000D01*
X193448555Y-84407000D01*
X193734135Y-84288709D01*
X193952709Y-84070135D01*
X194071000Y-83784555D01*
X194071000Y-83475445D01*
X193952709Y-83189865D01*
X193734135Y-82971291D01*
X193448555Y-82853000D01*
X193139445Y-82853000D01*
X192853865Y-82971291D01*
X192697156Y-83128000D01*
X173482909Y-83128000D01*
X173423597Y-82984809D01*
X173103191Y-82664403D01*
X172684561Y-82491000D01*
X172231439Y-82491000D01*
X171812809Y-82664403D01*
X171492403Y-82984809D01*
X171325803Y-83387015D01*
X171103191Y-83164403D01*
X170684561Y-82991000D01*
X170231439Y-82991000D01*
X169812809Y-83164403D01*
X169492403Y-83484809D01*
X169319000Y-83903439D01*
X166497000Y-83903439D01*
X166497000Y-81487484D01*
X166570811Y-81487484D01*
X166621693Y-81683160D01*
X166999946Y-82338449D01*
X167600175Y-82799106D01*
X168331000Y-82995000D01*
X168831000Y-82995000D01*
X168831000Y-81187000D01*
X169085000Y-81187000D01*
X169085000Y-82995000D01*
X169585000Y-82995000D01*
X170315825Y-82799106D01*
X170916054Y-82338449D01*
X171036931Y-82129039D01*
X196028096Y-82129039D01*
X196045633Y-82211819D01*
X196315500Y-82704896D01*
X196753517Y-83057166D01*
X197293000Y-83215000D01*
X198293000Y-83215000D01*
X198293000Y-81907000D01*
X196150085Y-81907000D01*
X196028096Y-82129039D01*
X171036931Y-82129039D01*
X171294307Y-81683160D01*
X171345189Y-81487484D01*
X171323466Y-81430961D01*
X196028096Y-81430961D01*
X196150085Y-81653000D01*
X198293000Y-81653000D01*
X198293000Y-80345000D01*
X197293000Y-80345000D01*
X196753517Y-80502834D01*
X196315500Y-80855104D01*
X196045633Y-81348181D01*
X196028096Y-81430961D01*
X171323466Y-81430961D01*
X171229704Y-81187000D01*
X169085000Y-81187000D01*
X168831000Y-81187000D01*
X166686296Y-81187000D01*
X166570811Y-81487484D01*
X166497000Y-81487484D01*
X166497000Y-79217000D01*
X167987774Y-79217000D01*
X167600175Y-79320894D01*
G04 #@! TD*
M02*
