G04 #@! TF.GenerationSoftware,KiCad,Pcbnew,(5.0.0-rc2-110-g9edfd25)*
G04 #@! TF.CreationDate,2018-06-11T15:32:49-07:00*
G04 #@! TF.ProjectId,USB-Power-Cleaner,5553422D506F7765722D436C65616E65,rev?*
G04 #@! TF.SameCoordinates,Original*
G04 #@! TF.FileFunction,Copper,L1,Top,Signal*
G04 #@! TF.FilePolarity,Positive*
%FSLAX46Y46*%
G04 Gerber Fmt 4.6, Leading zero omitted, Abs format (unit mm)*
G04 Created by KiCad (PCBNEW (5.0.0-rc2-110-g9edfd25)) date Monday, June 11, 2018 at 03:32:49 PM*
%MOMM*%
%LPD*%
G01*
G04 APERTURE LIST*
G04 #@! TA.AperFunction,SMDPad,CuDef*
%ADD10R,1.250000X3.400000*%
G04 #@! TD*
G04 #@! TA.AperFunction,SMDPad,CuDef*
%ADD11R,2.650000X1.250000*%
G04 #@! TD*
G04 #@! TA.AperFunction,ComponentPad*
%ADD12C,1.524000*%
G04 #@! TD*
G04 #@! TA.AperFunction,ComponentPad*
%ADD13O,3.600000X2.600000*%
G04 #@! TD*
G04 #@! TA.AperFunction,SMDPad,CuDef*
%ADD14R,2.780000X0.800000*%
G04 #@! TD*
G04 #@! TA.AperFunction,ComponentPad*
%ADD15O,3.600000X1.600000*%
G04 #@! TD*
G04 #@! TA.AperFunction,SMDPad,CuDef*
%ADD16R,1.800000X3.600000*%
G04 #@! TD*
G04 #@! TA.AperFunction,ViaPad*
%ADD17C,0.800000*%
G04 #@! TD*
G04 #@! TA.AperFunction,Conductor*
%ADD18C,1.000000*%
G04 #@! TD*
G04 #@! TA.AperFunction,Conductor*
%ADD19C,0.250000*%
G04 #@! TD*
G04 APERTURE END LIST*
D10*
G04 #@! TO.P,C1,1*
G04 #@! TO.N,Net-(C1-Pad1)*
X186690000Y-91694000D03*
G04 #@! TO.P,C1,2*
G04 #@! TO.N,GND*
X190840000Y-91694000D03*
G04 #@! TD*
D11*
G04 #@! TO.P,C2,1*
G04 #@! TO.N,Net-(C2-Pad1)*
X180340000Y-91440000D03*
G04 #@! TO.P,C2,2*
G04 #@! TO.N,GND*
X180340000Y-94240000D03*
G04 #@! TD*
G04 #@! TO.P,C3,2*
G04 #@! TO.N,GND*
X175768000Y-94240000D03*
G04 #@! TO.P,C3,1*
G04 #@! TO.N,Net-(C3-Pad1)*
X175768000Y-91440000D03*
G04 #@! TD*
D12*
G04 #@! TO.P,J1,7*
G04 #@! TO.N,Net-(J1-Pad7)*
X172458000Y-87630000D03*
G04 #@! TO.P,J1,8*
G04 #@! TO.N,Net-(J1-Pad8)*
X172458000Y-85630000D03*
G04 #@! TO.P,J1,9*
G04 #@! TO.N,Net-(J1-Pad9)*
X172458000Y-83630000D03*
G04 #@! TO.P,J1,6*
G04 #@! TO.N,Net-(J1-Pad6)*
X172458000Y-89630000D03*
G04 #@! TO.P,J1,5*
G04 #@! TO.N,Net-(J1-Pad5)*
X172458000Y-91630000D03*
G04 #@! TO.P,J1,1*
G04 #@! TO.N,Net-(C3-Pad1)*
X170458000Y-84130000D03*
G04 #@! TO.P,J1,2*
G04 #@! TO.N,Net-(J1-Pad2)*
X170458000Y-86630000D03*
G04 #@! TO.P,J1,3*
G04 #@! TO.N,Net-(J1-Pad3)*
X170458000Y-88630000D03*
G04 #@! TO.P,J1,4*
G04 #@! TO.N,GND*
X170458000Y-91130000D03*
D13*
G04 #@! TO.P,J1,10*
G04 #@! TO.N,Net-(J1-Pad10)*
X168958000Y-94200000D03*
X168958000Y-81060000D03*
G04 #@! TD*
D14*
G04 #@! TO.P,J2,7*
G04 #@! TO.N,Net-(J1-Pad7)*
X195580000Y-87630000D03*
G04 #@! TO.P,J2,2*
G04 #@! TO.N,Net-(J1-Pad2)*
X195580000Y-86630000D03*
G04 #@! TO.P,J2,8*
G04 #@! TO.N,Net-(J1-Pad8)*
X195580000Y-85630000D03*
G04 #@! TO.P,J2,1*
G04 #@! TO.N,Net-(C1-Pad1)*
X195580000Y-84630000D03*
G04 #@! TO.P,J2,3*
G04 #@! TO.N,Net-(J1-Pad3)*
X195580000Y-88630000D03*
G04 #@! TO.P,J2,6*
G04 #@! TO.N,Net-(J1-Pad6)*
X195580000Y-89630000D03*
G04 #@! TO.P,J2,4*
G04 #@! TO.N,GND*
X195580000Y-90630000D03*
G04 #@! TO.P,J2,9*
G04 #@! TO.N,Net-(J1-Pad9)*
X195580000Y-83630000D03*
G04 #@! TO.P,J2,5*
G04 #@! TO.N,Net-(J1-Pad5)*
X195580000Y-91630000D03*
D15*
G04 #@! TO.P,J2,10*
G04 #@! TO.N,Net-(J1-Pad10)*
X198420000Y-81780000D03*
X198420000Y-93480000D03*
G04 #@! TD*
D16*
G04 #@! TO.P,L1,1*
G04 #@! TO.N,Net-(C1-Pad1)*
X191000000Y-84582000D03*
G04 #@! TO.P,L1,2*
G04 #@! TO.N,Net-(C2-Pad1)*
X182000000Y-84582000D03*
G04 #@! TD*
D10*
G04 #@! TO.P,L2,1*
G04 #@! TO.N,Net-(C3-Pad1)*
X175428000Y-84074000D03*
G04 #@! TO.P,L2,2*
G04 #@! TO.N,Net-(C2-Pad1)*
X179578000Y-84074000D03*
G04 #@! TD*
D17*
G04 #@! TO.N,Net-(J1-Pad7)*
X193294000Y-87652006D03*
G04 #@! TO.N,Net-(J1-Pad8)*
X193294000Y-85852000D03*
G04 #@! TO.N,Net-(J1-Pad9)*
X193294000Y-83630000D03*
G04 #@! TO.N,Net-(J1-Pad6)*
X193294000Y-89630000D03*
G04 #@! TO.N,Net-(J1-Pad5)*
X193294000Y-91694000D03*
G04 #@! TO.N,Net-(J1-Pad2)*
X193294000Y-86752003D03*
G04 #@! TO.N,Net-(J1-Pad3)*
X193294000Y-88646000D03*
G04 #@! TD*
D18*
G04 #@! TO.N,Net-(C1-Pad1)*
X186690000Y-91635000D02*
X186690000Y-92710000D01*
X191048000Y-84630000D02*
X195580000Y-84630000D01*
X191000000Y-84582000D02*
X191048000Y-84630000D01*
X186690000Y-88994000D02*
X186690000Y-91694000D01*
X186690000Y-86992000D02*
X186690000Y-88994000D01*
X189100000Y-84582000D02*
X186690000Y-86992000D01*
X191000000Y-84582000D02*
X189100000Y-84582000D01*
G04 #@! TO.N,GND*
X173443000Y-94240000D02*
X175768000Y-94240000D01*
X172490370Y-94240000D02*
X173443000Y-94240000D01*
X170458000Y-92207630D02*
X172490370Y-94240000D01*
X170458000Y-91130000D02*
X170458000Y-92207630D01*
X175768000Y-94240000D02*
X180340000Y-94240000D01*
X191904000Y-90630000D02*
X190840000Y-91694000D01*
X195580000Y-90630000D02*
X191904000Y-90630000D01*
X190840000Y-92370000D02*
X190840000Y-91694000D01*
X188976000Y-94234000D02*
X190840000Y-92370000D01*
X188300000Y-94234000D02*
X188976000Y-94234000D01*
X188294000Y-94240000D02*
X188300000Y-94234000D01*
X180340000Y-94240000D02*
X188294000Y-94240000D01*
G04 #@! TO.N,Net-(C2-Pad1)*
X181492000Y-84074000D02*
X182000000Y-84582000D01*
X179578000Y-84074000D02*
X181492000Y-84074000D01*
X182000000Y-89780000D02*
X180340000Y-91440000D01*
X182000000Y-84582000D02*
X182000000Y-89780000D01*
G04 #@! TO.N,Net-(C3-Pad1)*
X175428000Y-82999000D02*
X175428000Y-84074000D01*
X173803000Y-81374000D02*
X175428000Y-82999000D01*
X172136370Y-81374000D02*
X173803000Y-81374000D01*
X170458000Y-83052370D02*
X172136370Y-81374000D01*
X170458000Y-84130000D02*
X170458000Y-83052370D01*
X175428000Y-91100000D02*
X175768000Y-91440000D01*
X175428000Y-84074000D02*
X175428000Y-91100000D01*
D19*
G04 #@! TO.N,Net-(J1-Pad7)*
X195557994Y-87652006D02*
X195580000Y-87630000D01*
X193294000Y-87652006D02*
X195557994Y-87652006D01*
G04 #@! TO.N,Net-(J1-Pad8)*
X195358000Y-85852000D02*
X195580000Y-85630000D01*
X193294000Y-85852000D02*
X195358000Y-85852000D01*
G04 #@! TO.N,Net-(J1-Pad9)*
X193294000Y-83630000D02*
X195580000Y-83630000D01*
G04 #@! TO.N,Net-(J1-Pad6)*
X193294000Y-89630000D02*
X195580000Y-89630000D01*
G04 #@! TO.N,Net-(J1-Pad5)*
X195516000Y-91694000D02*
X195580000Y-91630000D01*
X193294000Y-91694000D02*
X195516000Y-91694000D01*
G04 #@! TO.N,Net-(J1-Pad2)*
X195457997Y-86752003D02*
X195580000Y-86630000D01*
X193294000Y-86752003D02*
X195457997Y-86752003D01*
G04 #@! TO.N,Net-(J1-Pad3)*
X195564000Y-88646000D02*
X195580000Y-88630000D01*
X193294000Y-88646000D02*
X195564000Y-88646000D01*
G04 #@! TD*
M02*
