M48
;DRILL file {KiCad (5.0.0-rc2-110-g9edfd25)} date Friday, June 15, 2018 at 05:42:53 PM
;FORMAT={-:-/ absolute / inch / decimal}
FMAT,2
INCH,TZ
T1C0.0157
T2C0.0276
T3C0.0354
T4C0.0591
%
G90
G05
M72
T1
X7.58Y-3.49
X7.58Y-3.41
X7.6Y-3.61
X7.61Y-3.2925
X7.61Y-3.38
X7.61Y-3.45
X7.61Y-3.53
T2
X6.7109Y-3.3122
X6.7109Y-3.4106
X6.7109Y-3.4894
X6.7109Y-3.5878
X6.7897Y-3.2925
X6.7897Y-3.3713
X6.7897Y-3.45
X6.7897Y-3.5287
X6.7897Y-3.6075
T3
X7.7724Y-3.2197G85X7.8512Y-3.2197
G05
X7.7724Y-3.6803G85X7.8512Y-3.6803
G05
T4
X6.6676Y-3.1913G85X6.6361Y-3.1913
G05
X6.6676Y-3.7087G85X6.6361Y-3.7087
G05
T0
M30
