G04 #@! TF.GenerationSoftware,KiCad,Pcbnew,(5.0-dev-4115-gdd04bcb)*
G04 #@! TF.CreationDate,2018-06-11T00:35:00-07:00*
G04 #@! TF.ProjectId,USB-Voltage-Probe,5553422D566F6C746167652D50726F62,rev?*
G04 #@! TF.SameCoordinates,Original*
G04 #@! TF.FileFunction,Legend,Bot*
G04 #@! TF.FilePolarity,Positive*
%FSLAX46Y46*%
G04 Gerber Fmt 4.6, Leading zero omitted, Abs format (unit mm)*
G04 Created by KiCad (PCBNEW (5.0-dev-4115-gdd04bcb)) date Monday, June 11, 2018 at 12:35:00 AM*
%MOMM*%
%LPD*%
G01*
G04 APERTURE LIST*
%ADD10C,0.150000*%
G04 APERTURE END LIST*
D10*
X138327380Y-47681428D02*
X139136904Y-47681428D01*
X139232142Y-47729047D01*
X139279761Y-47776666D01*
X139327380Y-47871904D01*
X139327380Y-48062380D01*
X139279761Y-48157619D01*
X139232142Y-48205238D01*
X139136904Y-48252857D01*
X138327380Y-48252857D01*
X139279761Y-48681428D02*
X139327380Y-48824285D01*
X139327380Y-49062380D01*
X139279761Y-49157619D01*
X139232142Y-49205238D01*
X139136904Y-49252857D01*
X139041666Y-49252857D01*
X138946428Y-49205238D01*
X138898809Y-49157619D01*
X138851190Y-49062380D01*
X138803571Y-48871904D01*
X138755952Y-48776666D01*
X138708333Y-48729047D01*
X138613095Y-48681428D01*
X138517857Y-48681428D01*
X138422619Y-48729047D01*
X138375000Y-48776666D01*
X138327380Y-48871904D01*
X138327380Y-49110000D01*
X138375000Y-49252857D01*
X138803571Y-50014761D02*
X138851190Y-50157619D01*
X138898809Y-50205238D01*
X138994047Y-50252857D01*
X139136904Y-50252857D01*
X139232142Y-50205238D01*
X139279761Y-50157619D01*
X139327380Y-50062380D01*
X139327380Y-49681428D01*
X138327380Y-49681428D01*
X138327380Y-50014761D01*
X138375000Y-50110000D01*
X138422619Y-50157619D01*
X138517857Y-50205238D01*
X138613095Y-50205238D01*
X138708333Y-50157619D01*
X138755952Y-50110000D01*
X138803571Y-50014761D01*
X138803571Y-49681428D01*
X138327380Y-51300476D02*
X139327380Y-51633809D01*
X138327380Y-51967142D01*
X139327380Y-52443333D02*
X139279761Y-52348095D01*
X139232142Y-52300476D01*
X139136904Y-52252857D01*
X138851190Y-52252857D01*
X138755952Y-52300476D01*
X138708333Y-52348095D01*
X138660714Y-52443333D01*
X138660714Y-52586190D01*
X138708333Y-52681428D01*
X138755952Y-52729047D01*
X138851190Y-52776666D01*
X139136904Y-52776666D01*
X139232142Y-52729047D01*
X139279761Y-52681428D01*
X139327380Y-52586190D01*
X139327380Y-52443333D01*
X139327380Y-53348095D02*
X139279761Y-53252857D01*
X139184523Y-53205238D01*
X138327380Y-53205238D01*
X138660714Y-53586190D02*
X138660714Y-53967142D01*
X138327380Y-53729047D02*
X139184523Y-53729047D01*
X139279761Y-53776666D01*
X139327380Y-53871904D01*
X139327380Y-53967142D01*
X139327380Y-54729047D02*
X138803571Y-54729047D01*
X138708333Y-54681428D01*
X138660714Y-54586190D01*
X138660714Y-54395714D01*
X138708333Y-54300476D01*
X139279761Y-54729047D02*
X139327380Y-54633809D01*
X139327380Y-54395714D01*
X139279761Y-54300476D01*
X139184523Y-54252857D01*
X139089285Y-54252857D01*
X138994047Y-54300476D01*
X138946428Y-54395714D01*
X138946428Y-54633809D01*
X138898809Y-54729047D01*
X138660714Y-55633809D02*
X139470238Y-55633809D01*
X139565476Y-55586190D01*
X139613095Y-55538571D01*
X139660714Y-55443333D01*
X139660714Y-55300476D01*
X139613095Y-55205238D01*
X139279761Y-55633809D02*
X139327380Y-55538571D01*
X139327380Y-55348095D01*
X139279761Y-55252857D01*
X139232142Y-55205238D01*
X139136904Y-55157619D01*
X138851190Y-55157619D01*
X138755952Y-55205238D01*
X138708333Y-55252857D01*
X138660714Y-55348095D01*
X138660714Y-55538571D01*
X138708333Y-55633809D01*
X139279761Y-56490952D02*
X139327380Y-56395714D01*
X139327380Y-56205238D01*
X139279761Y-56110000D01*
X139184523Y-56062380D01*
X138803571Y-56062380D01*
X138708333Y-56110000D01*
X138660714Y-56205238D01*
X138660714Y-56395714D01*
X138708333Y-56490952D01*
X138803571Y-56538571D01*
X138898809Y-56538571D01*
X138994047Y-56062380D01*
X139327380Y-57729047D02*
X138327380Y-57729047D01*
X138327380Y-58110000D01*
X138375000Y-58205238D01*
X138422619Y-58252857D01*
X138517857Y-58300476D01*
X138660714Y-58300476D01*
X138755952Y-58252857D01*
X138803571Y-58205238D01*
X138851190Y-58110000D01*
X138851190Y-57729047D01*
X139327380Y-58729047D02*
X138660714Y-58729047D01*
X138851190Y-58729047D02*
X138755952Y-58776666D01*
X138708333Y-58824285D01*
X138660714Y-58919523D01*
X138660714Y-59014761D01*
X139327380Y-59490952D02*
X139279761Y-59395714D01*
X139232142Y-59348095D01*
X139136904Y-59300476D01*
X138851190Y-59300476D01*
X138755952Y-59348095D01*
X138708333Y-59395714D01*
X138660714Y-59490952D01*
X138660714Y-59633809D01*
X138708333Y-59729047D01*
X138755952Y-59776666D01*
X138851190Y-59824285D01*
X139136904Y-59824285D01*
X139232142Y-59776666D01*
X139279761Y-59729047D01*
X139327380Y-59633809D01*
X139327380Y-59490952D01*
X139327380Y-60252857D02*
X138327380Y-60252857D01*
X138708333Y-60252857D02*
X138660714Y-60348095D01*
X138660714Y-60538571D01*
X138708333Y-60633809D01*
X138755952Y-60681428D01*
X138851190Y-60729047D01*
X139136904Y-60729047D01*
X139232142Y-60681428D01*
X139279761Y-60633809D01*
X139327380Y-60538571D01*
X139327380Y-60348095D01*
X139279761Y-60252857D01*
X139279761Y-61538571D02*
X139327380Y-61443333D01*
X139327380Y-61252857D01*
X139279761Y-61157619D01*
X139184523Y-61110000D01*
X138803571Y-61110000D01*
X138708333Y-61157619D01*
X138660714Y-61252857D01*
X138660714Y-61443333D01*
X138708333Y-61538571D01*
X138803571Y-61586190D01*
X138898809Y-61586190D01*
X138994047Y-61110000D01*
X140882142Y-49848095D02*
X140929761Y-49800476D01*
X140977380Y-49657619D01*
X140977380Y-49562380D01*
X140929761Y-49419523D01*
X140834523Y-49324285D01*
X140739285Y-49276666D01*
X140548809Y-49229047D01*
X140405952Y-49229047D01*
X140215476Y-49276666D01*
X140120238Y-49324285D01*
X140025000Y-49419523D01*
X139977380Y-49562380D01*
X139977380Y-49657619D01*
X140025000Y-49800476D01*
X140072619Y-49848095D01*
X140977380Y-50419523D02*
X140929761Y-50324285D01*
X140882142Y-50276666D01*
X140786904Y-50229047D01*
X140501190Y-50229047D01*
X140405952Y-50276666D01*
X140358333Y-50324285D01*
X140310714Y-50419523D01*
X140310714Y-50562380D01*
X140358333Y-50657619D01*
X140405952Y-50705238D01*
X140501190Y-50752857D01*
X140786904Y-50752857D01*
X140882142Y-50705238D01*
X140929761Y-50657619D01*
X140977380Y-50562380D01*
X140977380Y-50419523D01*
X140977380Y-51181428D02*
X140310714Y-51181428D01*
X140501190Y-51181428D02*
X140405952Y-51229047D01*
X140358333Y-51276666D01*
X140310714Y-51371904D01*
X140310714Y-51467142D01*
X140310714Y-51705238D02*
X140977380Y-51895714D01*
X140501190Y-52086190D01*
X140977380Y-52276666D01*
X140310714Y-52467142D01*
X140977380Y-52848095D02*
X140310714Y-52848095D01*
X139977380Y-52848095D02*
X140025000Y-52800476D01*
X140072619Y-52848095D01*
X140025000Y-52895714D01*
X139977380Y-52848095D01*
X140072619Y-52848095D01*
X140310714Y-53324285D02*
X140977380Y-53324285D01*
X140405952Y-53324285D02*
X140358333Y-53371904D01*
X140310714Y-53467142D01*
X140310714Y-53610000D01*
X140358333Y-53705238D01*
X140453571Y-53752857D01*
X140977380Y-53752857D01*
X140977380Y-54990952D02*
X139977380Y-54990952D01*
X140453571Y-54990952D02*
X140453571Y-55562380D01*
X140977380Y-55562380D02*
X139977380Y-55562380D01*
X140977380Y-56467142D02*
X140453571Y-56467142D01*
X140358333Y-56419523D01*
X140310714Y-56324285D01*
X140310714Y-56133809D01*
X140358333Y-56038571D01*
X140929761Y-56467142D02*
X140977380Y-56371904D01*
X140977380Y-56133809D01*
X140929761Y-56038571D01*
X140834523Y-55990952D01*
X140739285Y-55990952D01*
X140644047Y-56038571D01*
X140596428Y-56133809D01*
X140596428Y-56371904D01*
X140548809Y-56467142D01*
X140310714Y-56943333D02*
X140977380Y-56943333D01*
X140405952Y-56943333D02*
X140358333Y-56990952D01*
X140310714Y-57086190D01*
X140310714Y-57229047D01*
X140358333Y-57324285D01*
X140453571Y-57371904D01*
X140977380Y-57371904D01*
X140929761Y-57800476D02*
X140977380Y-57895714D01*
X140977380Y-58086190D01*
X140929761Y-58181428D01*
X140834523Y-58229047D01*
X140786904Y-58229047D01*
X140691666Y-58181428D01*
X140644047Y-58086190D01*
X140644047Y-57943333D01*
X140596428Y-57848095D01*
X140501190Y-57800476D01*
X140453571Y-57800476D01*
X140358333Y-57848095D01*
X140310714Y-57943333D01*
X140310714Y-58086190D01*
X140358333Y-58181428D01*
X140929761Y-59038571D02*
X140977380Y-58943333D01*
X140977380Y-58752857D01*
X140929761Y-58657619D01*
X140834523Y-58610000D01*
X140453571Y-58610000D01*
X140358333Y-58657619D01*
X140310714Y-58752857D01*
X140310714Y-58943333D01*
X140358333Y-59038571D01*
X140453571Y-59086190D01*
X140548809Y-59086190D01*
X140644047Y-58610000D01*
X140310714Y-59514761D02*
X140977380Y-59514761D01*
X140405952Y-59514761D02*
X140358333Y-59562380D01*
X140310714Y-59657619D01*
X140310714Y-59800476D01*
X140358333Y-59895714D01*
X140453571Y-59943333D01*
X140977380Y-59943333D01*
M02*
