G04 #@! TF.GenerationSoftware,KiCad,Pcbnew,(5.0.0-rc2-110-g9edfd25)*
G04 #@! TF.CreationDate,2018-06-15T17:50:17-07:00*
G04 #@! TF.ProjectId,USB-Voltage-Probe,5553422D566F6C746167652D50726F62,rev?*
G04 #@! TF.SameCoordinates,Original*
G04 #@! TF.FileFunction,Legend,Top*
G04 #@! TF.FilePolarity,Positive*
%FSLAX46Y46*%
G04 Gerber Fmt 4.6, Leading zero omitted, Abs format (unit mm)*
G04 Created by KiCad (PCBNEW (5.0.0-rc2-110-g9edfd25)) date Friday, June 15, 2018 at 05:50:17 PM*
%MOMM*%
%LPD*%
G01*
G04 APERTURE LIST*
%ADD10C,0.120000*%
%ADD11C,0.150000*%
G04 APERTURE END LIST*
D10*
G04 #@! TO.C,J3*
X153610000Y-59630000D02*
X154940000Y-59630000D01*
X153610000Y-60960000D02*
X153610000Y-59630000D01*
X153610000Y-62230000D02*
X156270000Y-62230000D01*
X156270000Y-62230000D02*
X156270000Y-62290000D01*
X153610000Y-62230000D02*
X153610000Y-62290000D01*
X153610000Y-62290000D02*
X156270000Y-62290000D01*
G04 #@! TO.C,J4*
X153610000Y-49590000D02*
X156270000Y-49590000D01*
X153610000Y-49530000D02*
X153610000Y-49590000D01*
X156270000Y-49530000D02*
X156270000Y-49590000D01*
X153610000Y-49530000D02*
X156270000Y-49530000D01*
X153610000Y-48260000D02*
X153610000Y-46930000D01*
X153610000Y-46930000D02*
X154940000Y-46930000D01*
G04 #@! TO.C,J1*
D11*
X135512380Y-54993333D02*
X136226666Y-54993333D01*
X136369523Y-55040952D01*
X136464761Y-55136190D01*
X136512380Y-55279047D01*
X136512380Y-55374285D01*
X136512380Y-53993333D02*
X136512380Y-54564761D01*
X136512380Y-54279047D02*
X135512380Y-54279047D01*
X135655238Y-54374285D01*
X135750476Y-54469523D01*
X135798095Y-54564761D01*
G04 #@! TO.C,J3*
X154178095Y-57920000D02*
X154082857Y-57872380D01*
X153940000Y-57872380D01*
X153797142Y-57920000D01*
X153701904Y-58015238D01*
X153654285Y-58110476D01*
X153606666Y-58300952D01*
X153606666Y-58443809D01*
X153654285Y-58634285D01*
X153701904Y-58729523D01*
X153797142Y-58824761D01*
X153940000Y-58872380D01*
X154035238Y-58872380D01*
X154178095Y-58824761D01*
X154225714Y-58777142D01*
X154225714Y-58443809D01*
X154035238Y-58443809D01*
X154654285Y-58872380D02*
X154654285Y-57872380D01*
X155225714Y-58872380D01*
X155225714Y-57872380D01*
X155701904Y-58872380D02*
X155701904Y-57872380D01*
X155940000Y-57872380D01*
X156082857Y-57920000D01*
X156178095Y-58015238D01*
X156225714Y-58110476D01*
X156273333Y-58300952D01*
X156273333Y-58443809D01*
X156225714Y-58634285D01*
X156178095Y-58729523D01*
X156082857Y-58824761D01*
X155940000Y-58872380D01*
X155701904Y-58872380D01*
G04 #@! TO.C,J4*
X153106666Y-50252380D02*
X153440000Y-51252380D01*
X153773333Y-50252380D01*
X154440000Y-50728571D02*
X154582857Y-50776190D01*
X154630476Y-50823809D01*
X154678095Y-50919047D01*
X154678095Y-51061904D01*
X154630476Y-51157142D01*
X154582857Y-51204761D01*
X154487619Y-51252380D01*
X154106666Y-51252380D01*
X154106666Y-50252380D01*
X154440000Y-50252380D01*
X154535238Y-50300000D01*
X154582857Y-50347619D01*
X154630476Y-50442857D01*
X154630476Y-50538095D01*
X154582857Y-50633333D01*
X154535238Y-50680952D01*
X154440000Y-50728571D01*
X154106666Y-50728571D01*
X155106666Y-50252380D02*
X155106666Y-51061904D01*
X155154285Y-51157142D01*
X155201904Y-51204761D01*
X155297142Y-51252380D01*
X155487619Y-51252380D01*
X155582857Y-51204761D01*
X155630476Y-51157142D01*
X155678095Y-51061904D01*
X155678095Y-50252380D01*
X156106666Y-51204761D02*
X156249523Y-51252380D01*
X156487619Y-51252380D01*
X156582857Y-51204761D01*
X156630476Y-51157142D01*
X156678095Y-51061904D01*
X156678095Y-50966666D01*
X156630476Y-50871428D01*
X156582857Y-50823809D01*
X156487619Y-50776190D01*
X156297142Y-50728571D01*
X156201904Y-50680952D01*
X156154285Y-50633333D01*
X156106666Y-50538095D01*
X156106666Y-50442857D01*
X156154285Y-50347619D01*
X156201904Y-50300000D01*
X156297142Y-50252380D01*
X156535238Y-50252380D01*
X156678095Y-50300000D01*
G04 #@! TO.C,J2*
X163552380Y-54943333D02*
X164266666Y-54943333D01*
X164409523Y-54990952D01*
X164504761Y-55086190D01*
X164552380Y-55229047D01*
X164552380Y-55324285D01*
X163647619Y-54514761D02*
X163600000Y-54467142D01*
X163552380Y-54371904D01*
X163552380Y-54133809D01*
X163600000Y-54038571D01*
X163647619Y-53990952D01*
X163742857Y-53943333D01*
X163838095Y-53943333D01*
X163980952Y-53990952D01*
X164552380Y-54562380D01*
X164552380Y-53943333D01*
G04 #@! TD*
M02*
