G04 #@! TF.GenerationSoftware,KiCad,Pcbnew,(5.0-dev-4115-gdd04bcb)*
G04 #@! TF.CreationDate,2018-06-11T00:35:00-07:00*
G04 #@! TF.ProjectId,USB-Voltage-Probe,5553422D566F6C746167652D50726F62,rev?*
G04 #@! TF.SameCoordinates,Original*
G04 #@! TF.FileFunction,Copper,L2,Bot,Signal*
G04 #@! TF.FilePolarity,Positive*
%FSLAX46Y46*%
G04 Gerber Fmt 4.6, Leading zero omitted, Abs format (unit mm)*
G04 Created by KiCad (PCBNEW (5.0-dev-4115-gdd04bcb)) date Monday, June 11, 2018 at 12:35:00 AM*
%MOMM*%
%LPD*%
G01*
G04 APERTURE LIST*
%ADD10C,1.524000*%
%ADD11O,3.600000X2.600000*%
%ADD12R,1.700000X1.700000*%
%ADD13O,3.600000X1.600000*%
%ADD14C,0.800000*%
%ADD15C,0.500000*%
%ADD16C,0.254000*%
G04 APERTURE END LIST*
D10*
X149860000Y-54610000D03*
X149860000Y-52610000D03*
X149860000Y-50610000D03*
X149860000Y-56610000D03*
X149860000Y-58610000D03*
X147860000Y-51110000D03*
X147860000Y-53610000D03*
X147860000Y-55610000D03*
X147860000Y-58110000D03*
D11*
X146360000Y-61180000D03*
X146360000Y-48040000D03*
D12*
X154940000Y-60960000D03*
X154940000Y-48260000D03*
D13*
X162550000Y-48760000D03*
X162550000Y-60460000D03*
D14*
X157575000Y-51600000D03*
X157575000Y-57625000D03*
D15*
X154940000Y-48260000D02*
X154940000Y-48965000D01*
X154940000Y-48965000D02*
X157575000Y-51600000D01*
X154940000Y-60960000D02*
X154940000Y-60260000D01*
X154940000Y-60260000D02*
X157575000Y-57625000D01*
D16*
G36*
X145002175Y-46300894D02*
X144401946Y-46761551D01*
X144023693Y-47416840D01*
X143972811Y-47612516D01*
X144088296Y-47913000D01*
X146233000Y-47913000D01*
X146233000Y-47893000D01*
X146487000Y-47893000D01*
X146487000Y-47913000D01*
X148631704Y-47913000D01*
X148747189Y-47612516D01*
X148696307Y-47416840D01*
X148692359Y-47410000D01*
X153705615Y-47410000D01*
X153705615Y-49110000D01*
X153734875Y-49257098D01*
X153818199Y-49381801D01*
X153942902Y-49465125D01*
X154090000Y-49494385D01*
X154582674Y-49494385D01*
X156798000Y-51709711D01*
X156798000Y-51754555D01*
X156916291Y-52040135D01*
X157134865Y-52258709D01*
X157420445Y-52377000D01*
X157729555Y-52377000D01*
X158015135Y-52258709D01*
X158108181Y-52165663D01*
X161573000Y-52165663D01*
X161573000Y-52554337D01*
X161721739Y-52913426D01*
X161996574Y-53188261D01*
X162355663Y-53337000D01*
X162744337Y-53337000D01*
X163103426Y-53188261D01*
X163378261Y-52913426D01*
X163527000Y-52554337D01*
X163527000Y-52165663D01*
X163378261Y-51806574D01*
X163103426Y-51531739D01*
X162744337Y-51383000D01*
X162355663Y-51383000D01*
X161996574Y-51531739D01*
X161721739Y-51806574D01*
X161573000Y-52165663D01*
X158108181Y-52165663D01*
X158233709Y-52040135D01*
X158352000Y-51754555D01*
X158352000Y-51445445D01*
X158233709Y-51159865D01*
X158015135Y-50941291D01*
X157729555Y-50823000D01*
X157684711Y-50823000D01*
X156134584Y-49272873D01*
X156145125Y-49257098D01*
X156174385Y-49110000D01*
X156174385Y-49109039D01*
X160158096Y-49109039D01*
X160175633Y-49191819D01*
X160445500Y-49684896D01*
X160883517Y-50037166D01*
X161423000Y-50195000D01*
X162423000Y-50195000D01*
X162423000Y-48887000D01*
X160280085Y-48887000D01*
X160158096Y-49109039D01*
X156174385Y-49109039D01*
X156174385Y-48410961D01*
X160158096Y-48410961D01*
X160280085Y-48633000D01*
X162423000Y-48633000D01*
X162423000Y-47325000D01*
X161423000Y-47325000D01*
X160883517Y-47482834D01*
X160445500Y-47835104D01*
X160175633Y-48328181D01*
X160158096Y-48410961D01*
X156174385Y-48410961D01*
X156174385Y-47410000D01*
X156145125Y-47262902D01*
X156061801Y-47138199D01*
X155937098Y-47054875D01*
X155790000Y-47025615D01*
X154090000Y-47025615D01*
X153942902Y-47054875D01*
X153818199Y-47138199D01*
X153734875Y-47262902D01*
X153705615Y-47410000D01*
X148692359Y-47410000D01*
X148318054Y-46761551D01*
X147717825Y-46300894D01*
X147330226Y-46197000D01*
X164623001Y-46197000D01*
X164623001Y-47809771D01*
X164216483Y-47482834D01*
X163677000Y-47325000D01*
X162677000Y-47325000D01*
X162677000Y-48633000D01*
X162697000Y-48633000D01*
X162697000Y-48887000D01*
X162677000Y-48887000D01*
X162677000Y-50195000D01*
X163677000Y-50195000D01*
X164216483Y-50037166D01*
X164623001Y-49710229D01*
X164623000Y-59509771D01*
X164216483Y-59182834D01*
X163677000Y-59025000D01*
X162677000Y-59025000D01*
X162677000Y-60333000D01*
X162697000Y-60333000D01*
X162697000Y-60587000D01*
X162677000Y-60587000D01*
X162677000Y-61895000D01*
X163677000Y-61895000D01*
X164216483Y-61737166D01*
X164623000Y-61410229D01*
X164623000Y-63023000D01*
X147330226Y-63023000D01*
X147717825Y-62919106D01*
X148318054Y-62458449D01*
X148696307Y-61803160D01*
X148747189Y-61607484D01*
X148631704Y-61307000D01*
X146487000Y-61307000D01*
X146487000Y-61327000D01*
X146233000Y-61327000D01*
X146233000Y-61307000D01*
X144088296Y-61307000D01*
X143972811Y-61607484D01*
X144023693Y-61803160D01*
X144401946Y-62458449D01*
X145002175Y-62919106D01*
X145389774Y-63023000D01*
X143637000Y-63023000D01*
X143637000Y-60752516D01*
X143972811Y-60752516D01*
X144088296Y-61053000D01*
X146233000Y-61053000D01*
X146233000Y-59245000D01*
X146487000Y-59245000D01*
X146487000Y-61053000D01*
X148631704Y-61053000D01*
X148747189Y-60752516D01*
X148696307Y-60556840D01*
X148438378Y-60110000D01*
X153705615Y-60110000D01*
X153705615Y-61810000D01*
X153734875Y-61957098D01*
X153818199Y-62081801D01*
X153942902Y-62165125D01*
X154090000Y-62194385D01*
X155790000Y-62194385D01*
X155937098Y-62165125D01*
X156061801Y-62081801D01*
X156145125Y-61957098D01*
X156174385Y-61810000D01*
X156174385Y-60809039D01*
X160158096Y-60809039D01*
X160175633Y-60891819D01*
X160445500Y-61384896D01*
X160883517Y-61737166D01*
X161423000Y-61895000D01*
X162423000Y-61895000D01*
X162423000Y-60587000D01*
X160280085Y-60587000D01*
X160158096Y-60809039D01*
X156174385Y-60809039D01*
X156174385Y-60110961D01*
X160158096Y-60110961D01*
X160280085Y-60333000D01*
X162423000Y-60333000D01*
X162423000Y-59025000D01*
X161423000Y-59025000D01*
X160883517Y-59182834D01*
X160445500Y-59535104D01*
X160175633Y-60028181D01*
X160158096Y-60110961D01*
X156174385Y-60110961D01*
X156174385Y-60110000D01*
X156145125Y-59962902D01*
X156136587Y-59950124D01*
X157684711Y-58402000D01*
X157729555Y-58402000D01*
X158015135Y-58283709D01*
X158233709Y-58065135D01*
X158352000Y-57779555D01*
X158352000Y-57470445D01*
X158233709Y-57184865D01*
X158015135Y-56966291D01*
X157729555Y-56848000D01*
X157420445Y-56848000D01*
X157134865Y-56966291D01*
X156916291Y-57184865D01*
X156798000Y-57470445D01*
X156798000Y-57515289D01*
X154587674Y-59725615D01*
X154090000Y-59725615D01*
X153942902Y-59754875D01*
X153818199Y-59838199D01*
X153734875Y-59962902D01*
X153705615Y-60110000D01*
X148438378Y-60110000D01*
X148318054Y-59901551D01*
X147717825Y-59440894D01*
X146987000Y-59245000D01*
X146487000Y-59245000D01*
X146233000Y-59245000D01*
X145733000Y-59245000D01*
X145002175Y-59440894D01*
X144401946Y-59901551D01*
X144023693Y-60556840D01*
X143972811Y-60752516D01*
X143637000Y-60752516D01*
X143637000Y-50883439D01*
X146721000Y-50883439D01*
X146721000Y-51336561D01*
X146894403Y-51755191D01*
X147214809Y-52075597D01*
X147633439Y-52249000D01*
X148086561Y-52249000D01*
X148505191Y-52075597D01*
X148825597Y-51755191D01*
X148992197Y-51352985D01*
X149214809Y-51575597D01*
X149297865Y-51610000D01*
X149214809Y-51644403D01*
X148894403Y-51964809D01*
X148721000Y-52383439D01*
X148721000Y-52836561D01*
X148737724Y-52876936D01*
X148505191Y-52644403D01*
X148086561Y-52471000D01*
X147633439Y-52471000D01*
X147214809Y-52644403D01*
X146894403Y-52964809D01*
X146721000Y-53383439D01*
X146721000Y-53836561D01*
X146894403Y-54255191D01*
X147214809Y-54575597D01*
X147297865Y-54610000D01*
X147214809Y-54644403D01*
X146894403Y-54964809D01*
X146721000Y-55383439D01*
X146721000Y-55836561D01*
X146894403Y-56255191D01*
X147214809Y-56575597D01*
X147633439Y-56749000D01*
X148086561Y-56749000D01*
X148505191Y-56575597D01*
X148737724Y-56343064D01*
X148721000Y-56383439D01*
X148721000Y-56836561D01*
X148894403Y-57255191D01*
X149214809Y-57575597D01*
X149297865Y-57610000D01*
X149214809Y-57644403D01*
X148992197Y-57867015D01*
X148825597Y-57464809D01*
X148505191Y-57144403D01*
X148086561Y-56971000D01*
X147633439Y-56971000D01*
X147214809Y-57144403D01*
X146894403Y-57464809D01*
X146721000Y-57883439D01*
X146721000Y-58336561D01*
X146894403Y-58755191D01*
X147214809Y-59075597D01*
X147633439Y-59249000D01*
X148086561Y-59249000D01*
X148505191Y-59075597D01*
X148727803Y-58852985D01*
X148894403Y-59255191D01*
X149214809Y-59575597D01*
X149633439Y-59749000D01*
X150086561Y-59749000D01*
X150505191Y-59575597D01*
X150825597Y-59255191D01*
X150999000Y-58836561D01*
X150999000Y-58383439D01*
X150825597Y-57964809D01*
X150505191Y-57644403D01*
X150422135Y-57610000D01*
X150505191Y-57575597D01*
X150825597Y-57255191D01*
X150999000Y-56836561D01*
X150999000Y-56665663D01*
X161573000Y-56665663D01*
X161573000Y-57054337D01*
X161721739Y-57413426D01*
X161996574Y-57688261D01*
X162355663Y-57837000D01*
X162744337Y-57837000D01*
X163103426Y-57688261D01*
X163378261Y-57413426D01*
X163527000Y-57054337D01*
X163527000Y-56665663D01*
X163378261Y-56306574D01*
X163103426Y-56031739D01*
X162744337Y-55883000D01*
X162355663Y-55883000D01*
X161996574Y-56031739D01*
X161721739Y-56306574D01*
X161573000Y-56665663D01*
X150999000Y-56665663D01*
X150999000Y-56383439D01*
X150825597Y-55964809D01*
X150505191Y-55644403D01*
X150422135Y-55610000D01*
X150505191Y-55575597D01*
X150825597Y-55255191D01*
X150999000Y-54836561D01*
X150999000Y-54383439D01*
X150825597Y-53964809D01*
X150505191Y-53644403D01*
X150422135Y-53610000D01*
X150505191Y-53575597D01*
X150825597Y-53255191D01*
X150999000Y-52836561D01*
X150999000Y-52383439D01*
X150825597Y-51964809D01*
X150505191Y-51644403D01*
X150422135Y-51610000D01*
X150505191Y-51575597D01*
X150825597Y-51255191D01*
X150999000Y-50836561D01*
X150999000Y-50383439D01*
X150825597Y-49964809D01*
X150505191Y-49644403D01*
X150086561Y-49471000D01*
X149633439Y-49471000D01*
X149214809Y-49644403D01*
X148894403Y-49964809D01*
X148727803Y-50367015D01*
X148505191Y-50144403D01*
X148086561Y-49971000D01*
X147633439Y-49971000D01*
X147214809Y-50144403D01*
X146894403Y-50464809D01*
X146721000Y-50883439D01*
X143637000Y-50883439D01*
X143637000Y-48467484D01*
X143972811Y-48467484D01*
X144023693Y-48663160D01*
X144401946Y-49318449D01*
X145002175Y-49779106D01*
X145733000Y-49975000D01*
X146233000Y-49975000D01*
X146233000Y-48167000D01*
X146487000Y-48167000D01*
X146487000Y-49975000D01*
X146987000Y-49975000D01*
X147717825Y-49779106D01*
X148318054Y-49318449D01*
X148696307Y-48663160D01*
X148747189Y-48467484D01*
X148631704Y-48167000D01*
X146487000Y-48167000D01*
X146233000Y-48167000D01*
X144088296Y-48167000D01*
X143972811Y-48467484D01*
X143637000Y-48467484D01*
X143637000Y-46197000D01*
X145389774Y-46197000D01*
X145002175Y-46300894D01*
X145002175Y-46300894D01*
G37*
X145002175Y-46300894D02*
X144401946Y-46761551D01*
X144023693Y-47416840D01*
X143972811Y-47612516D01*
X144088296Y-47913000D01*
X146233000Y-47913000D01*
X146233000Y-47893000D01*
X146487000Y-47893000D01*
X146487000Y-47913000D01*
X148631704Y-47913000D01*
X148747189Y-47612516D01*
X148696307Y-47416840D01*
X148692359Y-47410000D01*
X153705615Y-47410000D01*
X153705615Y-49110000D01*
X153734875Y-49257098D01*
X153818199Y-49381801D01*
X153942902Y-49465125D01*
X154090000Y-49494385D01*
X154582674Y-49494385D01*
X156798000Y-51709711D01*
X156798000Y-51754555D01*
X156916291Y-52040135D01*
X157134865Y-52258709D01*
X157420445Y-52377000D01*
X157729555Y-52377000D01*
X158015135Y-52258709D01*
X158108181Y-52165663D01*
X161573000Y-52165663D01*
X161573000Y-52554337D01*
X161721739Y-52913426D01*
X161996574Y-53188261D01*
X162355663Y-53337000D01*
X162744337Y-53337000D01*
X163103426Y-53188261D01*
X163378261Y-52913426D01*
X163527000Y-52554337D01*
X163527000Y-52165663D01*
X163378261Y-51806574D01*
X163103426Y-51531739D01*
X162744337Y-51383000D01*
X162355663Y-51383000D01*
X161996574Y-51531739D01*
X161721739Y-51806574D01*
X161573000Y-52165663D01*
X158108181Y-52165663D01*
X158233709Y-52040135D01*
X158352000Y-51754555D01*
X158352000Y-51445445D01*
X158233709Y-51159865D01*
X158015135Y-50941291D01*
X157729555Y-50823000D01*
X157684711Y-50823000D01*
X156134584Y-49272873D01*
X156145125Y-49257098D01*
X156174385Y-49110000D01*
X156174385Y-49109039D01*
X160158096Y-49109039D01*
X160175633Y-49191819D01*
X160445500Y-49684896D01*
X160883517Y-50037166D01*
X161423000Y-50195000D01*
X162423000Y-50195000D01*
X162423000Y-48887000D01*
X160280085Y-48887000D01*
X160158096Y-49109039D01*
X156174385Y-49109039D01*
X156174385Y-48410961D01*
X160158096Y-48410961D01*
X160280085Y-48633000D01*
X162423000Y-48633000D01*
X162423000Y-47325000D01*
X161423000Y-47325000D01*
X160883517Y-47482834D01*
X160445500Y-47835104D01*
X160175633Y-48328181D01*
X160158096Y-48410961D01*
X156174385Y-48410961D01*
X156174385Y-47410000D01*
X156145125Y-47262902D01*
X156061801Y-47138199D01*
X155937098Y-47054875D01*
X155790000Y-47025615D01*
X154090000Y-47025615D01*
X153942902Y-47054875D01*
X153818199Y-47138199D01*
X153734875Y-47262902D01*
X153705615Y-47410000D01*
X148692359Y-47410000D01*
X148318054Y-46761551D01*
X147717825Y-46300894D01*
X147330226Y-46197000D01*
X164623001Y-46197000D01*
X164623001Y-47809771D01*
X164216483Y-47482834D01*
X163677000Y-47325000D01*
X162677000Y-47325000D01*
X162677000Y-48633000D01*
X162697000Y-48633000D01*
X162697000Y-48887000D01*
X162677000Y-48887000D01*
X162677000Y-50195000D01*
X163677000Y-50195000D01*
X164216483Y-50037166D01*
X164623001Y-49710229D01*
X164623000Y-59509771D01*
X164216483Y-59182834D01*
X163677000Y-59025000D01*
X162677000Y-59025000D01*
X162677000Y-60333000D01*
X162697000Y-60333000D01*
X162697000Y-60587000D01*
X162677000Y-60587000D01*
X162677000Y-61895000D01*
X163677000Y-61895000D01*
X164216483Y-61737166D01*
X164623000Y-61410229D01*
X164623000Y-63023000D01*
X147330226Y-63023000D01*
X147717825Y-62919106D01*
X148318054Y-62458449D01*
X148696307Y-61803160D01*
X148747189Y-61607484D01*
X148631704Y-61307000D01*
X146487000Y-61307000D01*
X146487000Y-61327000D01*
X146233000Y-61327000D01*
X146233000Y-61307000D01*
X144088296Y-61307000D01*
X143972811Y-61607484D01*
X144023693Y-61803160D01*
X144401946Y-62458449D01*
X145002175Y-62919106D01*
X145389774Y-63023000D01*
X143637000Y-63023000D01*
X143637000Y-60752516D01*
X143972811Y-60752516D01*
X144088296Y-61053000D01*
X146233000Y-61053000D01*
X146233000Y-59245000D01*
X146487000Y-59245000D01*
X146487000Y-61053000D01*
X148631704Y-61053000D01*
X148747189Y-60752516D01*
X148696307Y-60556840D01*
X148438378Y-60110000D01*
X153705615Y-60110000D01*
X153705615Y-61810000D01*
X153734875Y-61957098D01*
X153818199Y-62081801D01*
X153942902Y-62165125D01*
X154090000Y-62194385D01*
X155790000Y-62194385D01*
X155937098Y-62165125D01*
X156061801Y-62081801D01*
X156145125Y-61957098D01*
X156174385Y-61810000D01*
X156174385Y-60809039D01*
X160158096Y-60809039D01*
X160175633Y-60891819D01*
X160445500Y-61384896D01*
X160883517Y-61737166D01*
X161423000Y-61895000D01*
X162423000Y-61895000D01*
X162423000Y-60587000D01*
X160280085Y-60587000D01*
X160158096Y-60809039D01*
X156174385Y-60809039D01*
X156174385Y-60110961D01*
X160158096Y-60110961D01*
X160280085Y-60333000D01*
X162423000Y-60333000D01*
X162423000Y-59025000D01*
X161423000Y-59025000D01*
X160883517Y-59182834D01*
X160445500Y-59535104D01*
X160175633Y-60028181D01*
X160158096Y-60110961D01*
X156174385Y-60110961D01*
X156174385Y-60110000D01*
X156145125Y-59962902D01*
X156136587Y-59950124D01*
X157684711Y-58402000D01*
X157729555Y-58402000D01*
X158015135Y-58283709D01*
X158233709Y-58065135D01*
X158352000Y-57779555D01*
X158352000Y-57470445D01*
X158233709Y-57184865D01*
X158015135Y-56966291D01*
X157729555Y-56848000D01*
X157420445Y-56848000D01*
X157134865Y-56966291D01*
X156916291Y-57184865D01*
X156798000Y-57470445D01*
X156798000Y-57515289D01*
X154587674Y-59725615D01*
X154090000Y-59725615D01*
X153942902Y-59754875D01*
X153818199Y-59838199D01*
X153734875Y-59962902D01*
X153705615Y-60110000D01*
X148438378Y-60110000D01*
X148318054Y-59901551D01*
X147717825Y-59440894D01*
X146987000Y-59245000D01*
X146487000Y-59245000D01*
X146233000Y-59245000D01*
X145733000Y-59245000D01*
X145002175Y-59440894D01*
X144401946Y-59901551D01*
X144023693Y-60556840D01*
X143972811Y-60752516D01*
X143637000Y-60752516D01*
X143637000Y-50883439D01*
X146721000Y-50883439D01*
X146721000Y-51336561D01*
X146894403Y-51755191D01*
X147214809Y-52075597D01*
X147633439Y-52249000D01*
X148086561Y-52249000D01*
X148505191Y-52075597D01*
X148825597Y-51755191D01*
X148992197Y-51352985D01*
X149214809Y-51575597D01*
X149297865Y-51610000D01*
X149214809Y-51644403D01*
X148894403Y-51964809D01*
X148721000Y-52383439D01*
X148721000Y-52836561D01*
X148737724Y-52876936D01*
X148505191Y-52644403D01*
X148086561Y-52471000D01*
X147633439Y-52471000D01*
X147214809Y-52644403D01*
X146894403Y-52964809D01*
X146721000Y-53383439D01*
X146721000Y-53836561D01*
X146894403Y-54255191D01*
X147214809Y-54575597D01*
X147297865Y-54610000D01*
X147214809Y-54644403D01*
X146894403Y-54964809D01*
X146721000Y-55383439D01*
X146721000Y-55836561D01*
X146894403Y-56255191D01*
X147214809Y-56575597D01*
X147633439Y-56749000D01*
X148086561Y-56749000D01*
X148505191Y-56575597D01*
X148737724Y-56343064D01*
X148721000Y-56383439D01*
X148721000Y-56836561D01*
X148894403Y-57255191D01*
X149214809Y-57575597D01*
X149297865Y-57610000D01*
X149214809Y-57644403D01*
X148992197Y-57867015D01*
X148825597Y-57464809D01*
X148505191Y-57144403D01*
X148086561Y-56971000D01*
X147633439Y-56971000D01*
X147214809Y-57144403D01*
X146894403Y-57464809D01*
X146721000Y-57883439D01*
X146721000Y-58336561D01*
X146894403Y-58755191D01*
X147214809Y-59075597D01*
X147633439Y-59249000D01*
X148086561Y-59249000D01*
X148505191Y-59075597D01*
X148727803Y-58852985D01*
X148894403Y-59255191D01*
X149214809Y-59575597D01*
X149633439Y-59749000D01*
X150086561Y-59749000D01*
X150505191Y-59575597D01*
X150825597Y-59255191D01*
X150999000Y-58836561D01*
X150999000Y-58383439D01*
X150825597Y-57964809D01*
X150505191Y-57644403D01*
X150422135Y-57610000D01*
X150505191Y-57575597D01*
X150825597Y-57255191D01*
X150999000Y-56836561D01*
X150999000Y-56665663D01*
X161573000Y-56665663D01*
X161573000Y-57054337D01*
X161721739Y-57413426D01*
X161996574Y-57688261D01*
X162355663Y-57837000D01*
X162744337Y-57837000D01*
X163103426Y-57688261D01*
X163378261Y-57413426D01*
X163527000Y-57054337D01*
X163527000Y-56665663D01*
X163378261Y-56306574D01*
X163103426Y-56031739D01*
X162744337Y-55883000D01*
X162355663Y-55883000D01*
X161996574Y-56031739D01*
X161721739Y-56306574D01*
X161573000Y-56665663D01*
X150999000Y-56665663D01*
X150999000Y-56383439D01*
X150825597Y-55964809D01*
X150505191Y-55644403D01*
X150422135Y-55610000D01*
X150505191Y-55575597D01*
X150825597Y-55255191D01*
X150999000Y-54836561D01*
X150999000Y-54383439D01*
X150825597Y-53964809D01*
X150505191Y-53644403D01*
X150422135Y-53610000D01*
X150505191Y-53575597D01*
X150825597Y-53255191D01*
X150999000Y-52836561D01*
X150999000Y-52383439D01*
X150825597Y-51964809D01*
X150505191Y-51644403D01*
X150422135Y-51610000D01*
X150505191Y-51575597D01*
X150825597Y-51255191D01*
X150999000Y-50836561D01*
X150999000Y-50383439D01*
X150825597Y-49964809D01*
X150505191Y-49644403D01*
X150086561Y-49471000D01*
X149633439Y-49471000D01*
X149214809Y-49644403D01*
X148894403Y-49964809D01*
X148727803Y-50367015D01*
X148505191Y-50144403D01*
X148086561Y-49971000D01*
X147633439Y-49971000D01*
X147214809Y-50144403D01*
X146894403Y-50464809D01*
X146721000Y-50883439D01*
X143637000Y-50883439D01*
X143637000Y-48467484D01*
X143972811Y-48467484D01*
X144023693Y-48663160D01*
X144401946Y-49318449D01*
X145002175Y-49779106D01*
X145733000Y-49975000D01*
X146233000Y-49975000D01*
X146233000Y-48167000D01*
X146487000Y-48167000D01*
X146487000Y-49975000D01*
X146987000Y-49975000D01*
X147717825Y-49779106D01*
X148318054Y-49318449D01*
X148696307Y-48663160D01*
X148747189Y-48467484D01*
X148631704Y-48167000D01*
X146487000Y-48167000D01*
X146233000Y-48167000D01*
X144088296Y-48167000D01*
X143972811Y-48467484D01*
X143637000Y-48467484D01*
X143637000Y-46197000D01*
X145389774Y-46197000D01*
X145002175Y-46300894D01*
M02*
