G04 #@! TF.GenerationSoftware,KiCad,Pcbnew,(5.0-dev-4115-gdd04bcb)*
G04 #@! TF.CreationDate,2018-06-11T00:34:32-07:00*
G04 #@! TF.ProjectId,USB-Voltage-Probe,5553422D566F6C746167652D50726F62,rev?*
G04 #@! TF.SameCoordinates,Original*
G04 #@! TF.FileFunction,Copper,L2,Bot,Signal*
G04 #@! TF.FilePolarity,Positive*
%FSLAX46Y46*%
G04 Gerber Fmt 4.6, Leading zero omitted, Abs format (unit mm)*
G04 Created by KiCad (PCBNEW (5.0-dev-4115-gdd04bcb)) date Monday, June 11, 2018 at 12:34:32 AM*
%MOMM*%
%LPD*%
G01*
G04 APERTURE LIST*
%ADD10R,1.700000X1.700000*%
%ADD11C,1.524000*%
%ADD12C,3.600000*%
%ADD13C,0.800000*%
%ADD14C,0.500000*%
%ADD15C,0.254000*%
G04 APERTURE END LIST*
D10*
X154940000Y-60960000D03*
X154940000Y-48260000D03*
D11*
X149860000Y-54610000D03*
X149860000Y-52610000D03*
X149860000Y-50610000D03*
X149860000Y-56610000D03*
X149860000Y-58610000D03*
X147860000Y-51110000D03*
X147860000Y-53610000D03*
X147860000Y-55610000D03*
X147860000Y-58110000D03*
D12*
X146360000Y-61180000D03*
X146360000Y-48040000D03*
X162550000Y-48760000D03*
X162550000Y-60460000D03*
D13*
X157575000Y-51600000D03*
X157575000Y-57625000D03*
D14*
X154940000Y-48260000D02*
X154940000Y-48965000D01*
X154940000Y-48965000D02*
X157575000Y-51600000D01*
X154940000Y-60960000D02*
X154940000Y-60260000D01*
X154940000Y-60260000D02*
X157575000Y-57625000D01*
D15*
G36*
X144808975Y-46309370D02*
X146360000Y-47860395D01*
X147911025Y-46309370D01*
X147847964Y-46197000D01*
X164623001Y-46197000D01*
X164623001Y-47401111D01*
X164280630Y-47208975D01*
X162729605Y-48760000D01*
X164280630Y-50311025D01*
X164623001Y-50118889D01*
X164623000Y-59101110D01*
X164280630Y-58908975D01*
X162729605Y-60460000D01*
X164280630Y-62011025D01*
X164623000Y-61818890D01*
X164623000Y-63023000D01*
X147847964Y-63023000D01*
X147911025Y-62910630D01*
X146360000Y-61359605D01*
X144808975Y-62910630D01*
X144872036Y-63023000D01*
X143637000Y-63023000D01*
X143637000Y-60724673D01*
X143919406Y-60724673D01*
X143930939Y-61693308D01*
X144279431Y-62534642D01*
X144629370Y-62731025D01*
X146180395Y-61180000D01*
X146539605Y-61180000D01*
X148090630Y-62731025D01*
X148440569Y-62534642D01*
X148800594Y-61635327D01*
X148789061Y-60666692D01*
X148558472Y-60110000D01*
X153705615Y-60110000D01*
X153705615Y-61810000D01*
X153734875Y-61957098D01*
X153818199Y-62081801D01*
X153942902Y-62165125D01*
X154090000Y-62194385D01*
X155790000Y-62194385D01*
X155808877Y-62190630D01*
X160998975Y-62190630D01*
X161195358Y-62540569D01*
X162094673Y-62900594D01*
X163063308Y-62889061D01*
X163904642Y-62540569D01*
X164101025Y-62190630D01*
X162550000Y-60639605D01*
X160998975Y-62190630D01*
X155808877Y-62190630D01*
X155937098Y-62165125D01*
X156061801Y-62081801D01*
X156145125Y-61957098D01*
X156174385Y-61810000D01*
X156174385Y-60110000D01*
X156153434Y-60004673D01*
X160109406Y-60004673D01*
X160120939Y-60973308D01*
X160469431Y-61814642D01*
X160819370Y-62011025D01*
X162370395Y-60460000D01*
X160819370Y-58908975D01*
X160469431Y-59105358D01*
X160109406Y-60004673D01*
X156153434Y-60004673D01*
X156145125Y-59962902D01*
X156136587Y-59950124D01*
X157357341Y-58729370D01*
X160998975Y-58729370D01*
X162550000Y-60280395D01*
X164101025Y-58729370D01*
X163904642Y-58379431D01*
X163005327Y-58019406D01*
X162036692Y-58030939D01*
X161195358Y-58379431D01*
X160998975Y-58729370D01*
X157357341Y-58729370D01*
X157684711Y-58402000D01*
X157729555Y-58402000D01*
X158015135Y-58283709D01*
X158233709Y-58065135D01*
X158352000Y-57779555D01*
X158352000Y-57470445D01*
X158233709Y-57184865D01*
X158015135Y-56966291D01*
X157729555Y-56848000D01*
X157420445Y-56848000D01*
X157134865Y-56966291D01*
X156916291Y-57184865D01*
X156798000Y-57470445D01*
X156798000Y-57515289D01*
X154587674Y-59725615D01*
X154090000Y-59725615D01*
X153942902Y-59754875D01*
X153818199Y-59838199D01*
X153734875Y-59962902D01*
X153705615Y-60110000D01*
X148558472Y-60110000D01*
X148440569Y-59825358D01*
X148090630Y-59628975D01*
X146539605Y-61180000D01*
X146180395Y-61180000D01*
X144629370Y-59628975D01*
X144279431Y-59825358D01*
X143919406Y-60724673D01*
X143637000Y-60724673D01*
X143637000Y-49770630D01*
X144808975Y-49770630D01*
X145005358Y-50120569D01*
X145904673Y-50480594D01*
X146873308Y-50469061D01*
X146902061Y-50457151D01*
X146894403Y-50464809D01*
X146721000Y-50883439D01*
X146721000Y-51336561D01*
X146894403Y-51755191D01*
X147214809Y-52075597D01*
X147633439Y-52249000D01*
X148086561Y-52249000D01*
X148505191Y-52075597D01*
X148825597Y-51755191D01*
X148992197Y-51352985D01*
X149214809Y-51575597D01*
X149297865Y-51610000D01*
X149214809Y-51644403D01*
X148894403Y-51964809D01*
X148721000Y-52383439D01*
X148721000Y-52836561D01*
X148737724Y-52876936D01*
X148505191Y-52644403D01*
X148086561Y-52471000D01*
X147633439Y-52471000D01*
X147214809Y-52644403D01*
X146894403Y-52964809D01*
X146721000Y-53383439D01*
X146721000Y-53836561D01*
X146894403Y-54255191D01*
X147214809Y-54575597D01*
X147297865Y-54610000D01*
X147214809Y-54644403D01*
X146894403Y-54964809D01*
X146721000Y-55383439D01*
X146721000Y-55836561D01*
X146894403Y-56255191D01*
X147214809Y-56575597D01*
X147633439Y-56749000D01*
X148086561Y-56749000D01*
X148505191Y-56575597D01*
X148737724Y-56343064D01*
X148721000Y-56383439D01*
X148721000Y-56836561D01*
X148894403Y-57255191D01*
X149214809Y-57575597D01*
X149297865Y-57610000D01*
X149214809Y-57644403D01*
X148992197Y-57867015D01*
X148825597Y-57464809D01*
X148505191Y-57144403D01*
X148086561Y-56971000D01*
X147633439Y-56971000D01*
X147214809Y-57144403D01*
X146894403Y-57464809D01*
X146721000Y-57883439D01*
X146721000Y-58336561D01*
X146894403Y-58755191D01*
X146920870Y-58781658D01*
X146815327Y-58739406D01*
X145846692Y-58750939D01*
X145005358Y-59099431D01*
X144808975Y-59449370D01*
X146360000Y-61000395D01*
X147911025Y-59449370D01*
X147798579Y-59249000D01*
X148086561Y-59249000D01*
X148505191Y-59075597D01*
X148727803Y-58852985D01*
X148894403Y-59255191D01*
X149214809Y-59575597D01*
X149633439Y-59749000D01*
X150086561Y-59749000D01*
X150505191Y-59575597D01*
X150825597Y-59255191D01*
X150999000Y-58836561D01*
X150999000Y-58383439D01*
X150825597Y-57964809D01*
X150505191Y-57644403D01*
X150422135Y-57610000D01*
X150505191Y-57575597D01*
X150825597Y-57255191D01*
X150999000Y-56836561D01*
X150999000Y-56665663D01*
X161573000Y-56665663D01*
X161573000Y-57054337D01*
X161721739Y-57413426D01*
X161996574Y-57688261D01*
X162355663Y-57837000D01*
X162744337Y-57837000D01*
X163103426Y-57688261D01*
X163378261Y-57413426D01*
X163527000Y-57054337D01*
X163527000Y-56665663D01*
X163378261Y-56306574D01*
X163103426Y-56031739D01*
X162744337Y-55883000D01*
X162355663Y-55883000D01*
X161996574Y-56031739D01*
X161721739Y-56306574D01*
X161573000Y-56665663D01*
X150999000Y-56665663D01*
X150999000Y-56383439D01*
X150825597Y-55964809D01*
X150505191Y-55644403D01*
X150422135Y-55610000D01*
X150505191Y-55575597D01*
X150825597Y-55255191D01*
X150999000Y-54836561D01*
X150999000Y-54383439D01*
X150825597Y-53964809D01*
X150505191Y-53644403D01*
X150422135Y-53610000D01*
X150505191Y-53575597D01*
X150825597Y-53255191D01*
X150999000Y-52836561D01*
X150999000Y-52383439D01*
X150825597Y-51964809D01*
X150505191Y-51644403D01*
X150422135Y-51610000D01*
X150505191Y-51575597D01*
X150825597Y-51255191D01*
X150999000Y-50836561D01*
X150999000Y-50383439D01*
X150825597Y-49964809D01*
X150505191Y-49644403D01*
X150086561Y-49471000D01*
X149633439Y-49471000D01*
X149214809Y-49644403D01*
X148894403Y-49964809D01*
X148727803Y-50367015D01*
X148505191Y-50144403D01*
X148086561Y-49971000D01*
X147798579Y-49971000D01*
X147911025Y-49770630D01*
X146360000Y-48219605D01*
X144808975Y-49770630D01*
X143637000Y-49770630D01*
X143637000Y-47584673D01*
X143919406Y-47584673D01*
X143930939Y-48553308D01*
X144279431Y-49394642D01*
X144629370Y-49591025D01*
X146180395Y-48040000D01*
X146539605Y-48040000D01*
X148090630Y-49591025D01*
X148440569Y-49394642D01*
X148800594Y-48495327D01*
X148789061Y-47526692D01*
X148740726Y-47410000D01*
X153705615Y-47410000D01*
X153705615Y-49110000D01*
X153734875Y-49257098D01*
X153818199Y-49381801D01*
X153942902Y-49465125D01*
X154090000Y-49494385D01*
X154582674Y-49494385D01*
X156798000Y-51709711D01*
X156798000Y-51754555D01*
X156916291Y-52040135D01*
X157134865Y-52258709D01*
X157420445Y-52377000D01*
X157729555Y-52377000D01*
X158015135Y-52258709D01*
X158108181Y-52165663D01*
X161573000Y-52165663D01*
X161573000Y-52554337D01*
X161721739Y-52913426D01*
X161996574Y-53188261D01*
X162355663Y-53337000D01*
X162744337Y-53337000D01*
X163103426Y-53188261D01*
X163378261Y-52913426D01*
X163527000Y-52554337D01*
X163527000Y-52165663D01*
X163378261Y-51806574D01*
X163103426Y-51531739D01*
X162744337Y-51383000D01*
X162355663Y-51383000D01*
X161996574Y-51531739D01*
X161721739Y-51806574D01*
X161573000Y-52165663D01*
X158108181Y-52165663D01*
X158233709Y-52040135D01*
X158352000Y-51754555D01*
X158352000Y-51445445D01*
X158233709Y-51159865D01*
X158015135Y-50941291D01*
X157729555Y-50823000D01*
X157684711Y-50823000D01*
X157352341Y-50490630D01*
X160998975Y-50490630D01*
X161195358Y-50840569D01*
X162094673Y-51200594D01*
X163063308Y-51189061D01*
X163904642Y-50840569D01*
X164101025Y-50490630D01*
X162550000Y-48939605D01*
X160998975Y-50490630D01*
X157352341Y-50490630D01*
X156134584Y-49272873D01*
X156145125Y-49257098D01*
X156174385Y-49110000D01*
X156174385Y-48304673D01*
X160109406Y-48304673D01*
X160120939Y-49273308D01*
X160469431Y-50114642D01*
X160819370Y-50311025D01*
X162370395Y-48760000D01*
X160819370Y-47208975D01*
X160469431Y-47405358D01*
X160109406Y-48304673D01*
X156174385Y-48304673D01*
X156174385Y-47410000D01*
X156145125Y-47262902D01*
X156061801Y-47138199D01*
X155937098Y-47054875D01*
X155808878Y-47029370D01*
X160998975Y-47029370D01*
X162550000Y-48580395D01*
X164101025Y-47029370D01*
X163904642Y-46679431D01*
X163005327Y-46319406D01*
X162036692Y-46330939D01*
X161195358Y-46679431D01*
X160998975Y-47029370D01*
X155808878Y-47029370D01*
X155790000Y-47025615D01*
X154090000Y-47025615D01*
X153942902Y-47054875D01*
X153818199Y-47138199D01*
X153734875Y-47262902D01*
X153705615Y-47410000D01*
X148740726Y-47410000D01*
X148440569Y-46685358D01*
X148090630Y-46488975D01*
X146539605Y-48040000D01*
X146180395Y-48040000D01*
X144629370Y-46488975D01*
X144279431Y-46685358D01*
X143919406Y-47584673D01*
X143637000Y-47584673D01*
X143637000Y-46197000D01*
X144872036Y-46197000D01*
X144808975Y-46309370D01*
X144808975Y-46309370D01*
G37*
X144808975Y-46309370D02*
X146360000Y-47860395D01*
X147911025Y-46309370D01*
X147847964Y-46197000D01*
X164623001Y-46197000D01*
X164623001Y-47401111D01*
X164280630Y-47208975D01*
X162729605Y-48760000D01*
X164280630Y-50311025D01*
X164623001Y-50118889D01*
X164623000Y-59101110D01*
X164280630Y-58908975D01*
X162729605Y-60460000D01*
X164280630Y-62011025D01*
X164623000Y-61818890D01*
X164623000Y-63023000D01*
X147847964Y-63023000D01*
X147911025Y-62910630D01*
X146360000Y-61359605D01*
X144808975Y-62910630D01*
X144872036Y-63023000D01*
X143637000Y-63023000D01*
X143637000Y-60724673D01*
X143919406Y-60724673D01*
X143930939Y-61693308D01*
X144279431Y-62534642D01*
X144629370Y-62731025D01*
X146180395Y-61180000D01*
X146539605Y-61180000D01*
X148090630Y-62731025D01*
X148440569Y-62534642D01*
X148800594Y-61635327D01*
X148789061Y-60666692D01*
X148558472Y-60110000D01*
X153705615Y-60110000D01*
X153705615Y-61810000D01*
X153734875Y-61957098D01*
X153818199Y-62081801D01*
X153942902Y-62165125D01*
X154090000Y-62194385D01*
X155790000Y-62194385D01*
X155808877Y-62190630D01*
X160998975Y-62190630D01*
X161195358Y-62540569D01*
X162094673Y-62900594D01*
X163063308Y-62889061D01*
X163904642Y-62540569D01*
X164101025Y-62190630D01*
X162550000Y-60639605D01*
X160998975Y-62190630D01*
X155808877Y-62190630D01*
X155937098Y-62165125D01*
X156061801Y-62081801D01*
X156145125Y-61957098D01*
X156174385Y-61810000D01*
X156174385Y-60110000D01*
X156153434Y-60004673D01*
X160109406Y-60004673D01*
X160120939Y-60973308D01*
X160469431Y-61814642D01*
X160819370Y-62011025D01*
X162370395Y-60460000D01*
X160819370Y-58908975D01*
X160469431Y-59105358D01*
X160109406Y-60004673D01*
X156153434Y-60004673D01*
X156145125Y-59962902D01*
X156136587Y-59950124D01*
X157357341Y-58729370D01*
X160998975Y-58729370D01*
X162550000Y-60280395D01*
X164101025Y-58729370D01*
X163904642Y-58379431D01*
X163005327Y-58019406D01*
X162036692Y-58030939D01*
X161195358Y-58379431D01*
X160998975Y-58729370D01*
X157357341Y-58729370D01*
X157684711Y-58402000D01*
X157729555Y-58402000D01*
X158015135Y-58283709D01*
X158233709Y-58065135D01*
X158352000Y-57779555D01*
X158352000Y-57470445D01*
X158233709Y-57184865D01*
X158015135Y-56966291D01*
X157729555Y-56848000D01*
X157420445Y-56848000D01*
X157134865Y-56966291D01*
X156916291Y-57184865D01*
X156798000Y-57470445D01*
X156798000Y-57515289D01*
X154587674Y-59725615D01*
X154090000Y-59725615D01*
X153942902Y-59754875D01*
X153818199Y-59838199D01*
X153734875Y-59962902D01*
X153705615Y-60110000D01*
X148558472Y-60110000D01*
X148440569Y-59825358D01*
X148090630Y-59628975D01*
X146539605Y-61180000D01*
X146180395Y-61180000D01*
X144629370Y-59628975D01*
X144279431Y-59825358D01*
X143919406Y-60724673D01*
X143637000Y-60724673D01*
X143637000Y-49770630D01*
X144808975Y-49770630D01*
X145005358Y-50120569D01*
X145904673Y-50480594D01*
X146873308Y-50469061D01*
X146902061Y-50457151D01*
X146894403Y-50464809D01*
X146721000Y-50883439D01*
X146721000Y-51336561D01*
X146894403Y-51755191D01*
X147214809Y-52075597D01*
X147633439Y-52249000D01*
X148086561Y-52249000D01*
X148505191Y-52075597D01*
X148825597Y-51755191D01*
X148992197Y-51352985D01*
X149214809Y-51575597D01*
X149297865Y-51610000D01*
X149214809Y-51644403D01*
X148894403Y-51964809D01*
X148721000Y-52383439D01*
X148721000Y-52836561D01*
X148737724Y-52876936D01*
X148505191Y-52644403D01*
X148086561Y-52471000D01*
X147633439Y-52471000D01*
X147214809Y-52644403D01*
X146894403Y-52964809D01*
X146721000Y-53383439D01*
X146721000Y-53836561D01*
X146894403Y-54255191D01*
X147214809Y-54575597D01*
X147297865Y-54610000D01*
X147214809Y-54644403D01*
X146894403Y-54964809D01*
X146721000Y-55383439D01*
X146721000Y-55836561D01*
X146894403Y-56255191D01*
X147214809Y-56575597D01*
X147633439Y-56749000D01*
X148086561Y-56749000D01*
X148505191Y-56575597D01*
X148737724Y-56343064D01*
X148721000Y-56383439D01*
X148721000Y-56836561D01*
X148894403Y-57255191D01*
X149214809Y-57575597D01*
X149297865Y-57610000D01*
X149214809Y-57644403D01*
X148992197Y-57867015D01*
X148825597Y-57464809D01*
X148505191Y-57144403D01*
X148086561Y-56971000D01*
X147633439Y-56971000D01*
X147214809Y-57144403D01*
X146894403Y-57464809D01*
X146721000Y-57883439D01*
X146721000Y-58336561D01*
X146894403Y-58755191D01*
X146920870Y-58781658D01*
X146815327Y-58739406D01*
X145846692Y-58750939D01*
X145005358Y-59099431D01*
X144808975Y-59449370D01*
X146360000Y-61000395D01*
X147911025Y-59449370D01*
X147798579Y-59249000D01*
X148086561Y-59249000D01*
X148505191Y-59075597D01*
X148727803Y-58852985D01*
X148894403Y-59255191D01*
X149214809Y-59575597D01*
X149633439Y-59749000D01*
X150086561Y-59749000D01*
X150505191Y-59575597D01*
X150825597Y-59255191D01*
X150999000Y-58836561D01*
X150999000Y-58383439D01*
X150825597Y-57964809D01*
X150505191Y-57644403D01*
X150422135Y-57610000D01*
X150505191Y-57575597D01*
X150825597Y-57255191D01*
X150999000Y-56836561D01*
X150999000Y-56665663D01*
X161573000Y-56665663D01*
X161573000Y-57054337D01*
X161721739Y-57413426D01*
X161996574Y-57688261D01*
X162355663Y-57837000D01*
X162744337Y-57837000D01*
X163103426Y-57688261D01*
X163378261Y-57413426D01*
X163527000Y-57054337D01*
X163527000Y-56665663D01*
X163378261Y-56306574D01*
X163103426Y-56031739D01*
X162744337Y-55883000D01*
X162355663Y-55883000D01*
X161996574Y-56031739D01*
X161721739Y-56306574D01*
X161573000Y-56665663D01*
X150999000Y-56665663D01*
X150999000Y-56383439D01*
X150825597Y-55964809D01*
X150505191Y-55644403D01*
X150422135Y-55610000D01*
X150505191Y-55575597D01*
X150825597Y-55255191D01*
X150999000Y-54836561D01*
X150999000Y-54383439D01*
X150825597Y-53964809D01*
X150505191Y-53644403D01*
X150422135Y-53610000D01*
X150505191Y-53575597D01*
X150825597Y-53255191D01*
X150999000Y-52836561D01*
X150999000Y-52383439D01*
X150825597Y-51964809D01*
X150505191Y-51644403D01*
X150422135Y-51610000D01*
X150505191Y-51575597D01*
X150825597Y-51255191D01*
X150999000Y-50836561D01*
X150999000Y-50383439D01*
X150825597Y-49964809D01*
X150505191Y-49644403D01*
X150086561Y-49471000D01*
X149633439Y-49471000D01*
X149214809Y-49644403D01*
X148894403Y-49964809D01*
X148727803Y-50367015D01*
X148505191Y-50144403D01*
X148086561Y-49971000D01*
X147798579Y-49971000D01*
X147911025Y-49770630D01*
X146360000Y-48219605D01*
X144808975Y-49770630D01*
X143637000Y-49770630D01*
X143637000Y-47584673D01*
X143919406Y-47584673D01*
X143930939Y-48553308D01*
X144279431Y-49394642D01*
X144629370Y-49591025D01*
X146180395Y-48040000D01*
X146539605Y-48040000D01*
X148090630Y-49591025D01*
X148440569Y-49394642D01*
X148800594Y-48495327D01*
X148789061Y-47526692D01*
X148740726Y-47410000D01*
X153705615Y-47410000D01*
X153705615Y-49110000D01*
X153734875Y-49257098D01*
X153818199Y-49381801D01*
X153942902Y-49465125D01*
X154090000Y-49494385D01*
X154582674Y-49494385D01*
X156798000Y-51709711D01*
X156798000Y-51754555D01*
X156916291Y-52040135D01*
X157134865Y-52258709D01*
X157420445Y-52377000D01*
X157729555Y-52377000D01*
X158015135Y-52258709D01*
X158108181Y-52165663D01*
X161573000Y-52165663D01*
X161573000Y-52554337D01*
X161721739Y-52913426D01*
X161996574Y-53188261D01*
X162355663Y-53337000D01*
X162744337Y-53337000D01*
X163103426Y-53188261D01*
X163378261Y-52913426D01*
X163527000Y-52554337D01*
X163527000Y-52165663D01*
X163378261Y-51806574D01*
X163103426Y-51531739D01*
X162744337Y-51383000D01*
X162355663Y-51383000D01*
X161996574Y-51531739D01*
X161721739Y-51806574D01*
X161573000Y-52165663D01*
X158108181Y-52165663D01*
X158233709Y-52040135D01*
X158352000Y-51754555D01*
X158352000Y-51445445D01*
X158233709Y-51159865D01*
X158015135Y-50941291D01*
X157729555Y-50823000D01*
X157684711Y-50823000D01*
X157352341Y-50490630D01*
X160998975Y-50490630D01*
X161195358Y-50840569D01*
X162094673Y-51200594D01*
X163063308Y-51189061D01*
X163904642Y-50840569D01*
X164101025Y-50490630D01*
X162550000Y-48939605D01*
X160998975Y-50490630D01*
X157352341Y-50490630D01*
X156134584Y-49272873D01*
X156145125Y-49257098D01*
X156174385Y-49110000D01*
X156174385Y-48304673D01*
X160109406Y-48304673D01*
X160120939Y-49273308D01*
X160469431Y-50114642D01*
X160819370Y-50311025D01*
X162370395Y-48760000D01*
X160819370Y-47208975D01*
X160469431Y-47405358D01*
X160109406Y-48304673D01*
X156174385Y-48304673D01*
X156174385Y-47410000D01*
X156145125Y-47262902D01*
X156061801Y-47138199D01*
X155937098Y-47054875D01*
X155808878Y-47029370D01*
X160998975Y-47029370D01*
X162550000Y-48580395D01*
X164101025Y-47029370D01*
X163904642Y-46679431D01*
X163005327Y-46319406D01*
X162036692Y-46330939D01*
X161195358Y-46679431D01*
X160998975Y-47029370D01*
X155808878Y-47029370D01*
X155790000Y-47025615D01*
X154090000Y-47025615D01*
X153942902Y-47054875D01*
X153818199Y-47138199D01*
X153734875Y-47262902D01*
X153705615Y-47410000D01*
X148740726Y-47410000D01*
X148440569Y-46685358D01*
X148090630Y-46488975D01*
X146539605Y-48040000D01*
X146180395Y-48040000D01*
X144629370Y-46488975D01*
X144279431Y-46685358D01*
X143919406Y-47584673D01*
X143637000Y-47584673D01*
X143637000Y-46197000D01*
X144872036Y-46197000D01*
X144808975Y-46309370D01*
M02*
